<svg width="33" height="33" viewBox="0 0 33 33" fill="none" xmlns="http://www.w3.org/2000/svg">
<g clip-path="url(#clip0_9142_12408)">
<path d="M13.0584 13.1754C11.8687 13.1754 10.7057 12.8225 9.71657 12.1613C8.72747 11.5002 7.95671 10.5605 7.50182 9.46114C7.04694 8.3618 6.92837 7.15223 7.16112 5.98548C7.39388 4.81874 7.96749 3.74725 8.80938 2.90661C9.65128 2.06596 10.7236 1.49393 11.8907 1.26291C13.0578 1.03188 14.2672 1.15224 15.3658 1.60875C16.4645 2.06526 17.4031 2.83741 18.0628 3.82749C18.7225 4.81757 19.0737 5.9811 19.0719 7.17083C19.0672 8.76344 18.4318 10.2894 17.3049 11.4147C16.1779 12.54 14.651 13.1731 13.0584 13.1754ZM13.0584 2.93648C12.2209 2.93648 11.4023 3.18482 10.7059 3.65009C10.0096 4.11537 9.46687 4.77669 9.14638 5.55041C8.82589 6.32414 8.74204 7.17553 8.90542 7.99691C9.0688 8.8183 9.47209 9.57278 10.0643 10.165C10.6565 10.7572 11.4109 11.1604 12.2323 11.3238C13.0537 11.4872 13.9051 11.4033 14.6788 11.0829C15.4526 10.7624 16.1139 10.2196 16.5791 9.52331C17.0444 8.82697 17.2928 8.00831 17.2928 7.17083C17.2928 6.04781 16.8466 4.97078 16.0526 4.17669C15.2585 3.38259 14.1814 2.93648 13.0584 2.93648Z" fill="#F8F8F8"/>
<path d="M14.6069 28.1825C14.4125 27.988 14.2625 27.7537 14.1673 27.4957C14.0721 27.2377 14.0339 26.9621 14.0554 26.688H3.55844V21.5463C4.81976 20.2004 6.34965 19.1344 8.04907 18.4172C9.74849 17.7001 11.5796 17.3477 13.4238 17.3831H14.0643C14.0234 17.0848 14.0519 16.7812 14.1476 16.4958C14.2433 16.2103 14.4035 15.9508 14.6158 15.7374L14.7225 15.6395C14.3044 15.6395 13.833 15.5862 13.4238 15.5862C11.2536 15.5346 9.09905 15.966 7.11598 16.8491C5.13291 17.7322 3.37085 19.0449 1.95721 20.6923C1.84173 20.8463 1.7793 21.0336 1.7793 21.226V26.688C1.7793 27.1598 1.96674 27.6124 2.30039 27.946C2.63405 28.2797 3.08658 28.4671 3.55844 28.4671H14.856L14.6069 28.1825Z" fill="#F8F8F8"/>
<path d="M23.9023 14.4912C23.9463 14.4821 23.9917 14.4821 24.0356 14.4912C23.9915 14.4832 23.9464 14.4832 23.9023 14.4912Z" fill="#F8F8F8"/>
<path d="M29.9609 20.7456L28.1817 20.203C28.0546 19.7678 27.8816 19.3474 27.6658 18.9487L28.5553 17.2941C28.5843 17.2279 28.5913 17.1542 28.5752 17.0837C28.5592 17.0133 28.5211 16.9498 28.4664 16.9027L27.1765 15.6128C27.1277 15.56 27.0626 15.5251 26.9916 15.5138C26.9206 15.5025 26.8479 15.5155 26.7851 15.5505L25.1483 16.4401C24.7452 16.2135 24.3187 16.0316 23.8762 15.8974L23.3336 14.1183C23.3105 14.0528 23.2669 13.9966 23.2091 13.9581C23.1513 13.9196 23.0826 13.9009 23.0133 13.9048H21.1897C21.1196 13.904 21.0513 13.9262 20.995 13.968C20.9388 14.0097 20.8978 14.0688 20.8784 14.1361L20.3357 15.9152C19.8902 16.0449 19.4605 16.2239 19.0547 16.449L17.4357 15.5594C17.3743 15.525 17.3031 15.5125 17.2336 15.5238C17.1641 15.5351 17.1005 15.5696 17.0532 15.6217L15.7366 16.9027C15.6878 16.9541 15.6564 17.0195 15.6468 17.0898C15.6372 17.16 15.65 17.2315 15.6833 17.2941L16.5728 18.9131C16.3375 19.3141 16.1495 19.7409 16.0124 20.1852L14.2333 20.7189C14.166 20.7384 14.1069 20.7794 14.0651 20.8356C14.0233 20.8918 14.0012 20.9602 14.002 21.0303V22.8539C14.0072 22.9181 14.0323 22.9792 14.0737 23.0286C14.1152 23.078 14.1709 23.1133 14.2333 23.1297L16.0124 23.6723C16.1439 24.1087 16.3229 24.5293 16.5461 24.9266L15.6566 26.6257C15.6226 26.6865 15.6095 26.7568 15.6191 26.8259C15.6287 26.8949 15.6606 26.9589 15.7099 27.0082L16.9998 28.2981C17.0502 28.3483 17.1152 28.3814 17.1854 28.3926C17.2557 28.4037 17.3277 28.3925 17.3912 28.3603L19.0547 27.4708C19.4506 27.6837 19.8681 27.8537 20.3001 27.9778L20.8339 29.7569C20.8558 29.8228 20.8974 29.8803 20.9531 29.9217C21.0088 29.9631 21.0759 29.9863 21.1452 29.9882H22.9688C23.0385 29.9876 23.1062 29.9649 23.1622 29.9233C23.2182 29.8818 23.2595 29.8235 23.2802 29.7569L23.8228 27.9333C24.2491 27.8091 24.6607 27.6391 25.0504 27.4263L26.7317 28.3158C26.7935 28.3487 26.8644 28.3604 26.9335 28.3491C27.0025 28.3379 27.066 28.3043 27.1142 28.2536L28.4664 27.0438C28.5027 26.9916 28.5222 26.9295 28.5222 26.8658C28.5222 26.8022 28.5027 26.7401 28.4664 26.6879L27.5768 25.0155C27.7928 24.6231 27.9658 24.2086 28.0928 23.779L29.8719 23.2364C29.9392 23.2169 29.9983 23.176 30.04 23.1197C30.0818 23.0635 30.104 22.9951 30.1032 22.9251V21.057C30.1114 20.9969 30.1023 20.9358 30.0771 20.8807C30.0519 20.8256 30.0116 20.7787 29.9609 20.7456ZM22.106 24.9088C21.5176 24.9106 20.9419 24.7376 20.4519 24.4118C19.962 24.086 19.5798 23.622 19.3538 23.0788C19.1278 22.5355 19.0682 21.9374 19.1826 21.3602C19.2969 20.783 19.5801 20.2528 19.9961 19.8367C20.4122 19.4207 20.9424 19.1375 21.5196 19.0231C22.0968 18.9088 22.6949 18.9684 23.2382 19.1943C23.7815 19.4203 24.2454 19.8025 24.5712 20.2925C24.897 20.7825 25.07 21.3581 25.0682 21.9465C25.0659 22.7314 24.753 23.4835 24.198 24.0386C23.643 24.5936 22.8909 24.9064 22.106 24.9088Z" fill="#F8F8F8"/>
</g>
<defs>
<clipPath id="clip0_9142_12408">
<rect width="32.0245" height="32.0245" fill="white"/>
</clipPath>
</defs>
</svg>
