<svg width="12" height="14" viewBox="0 0 12 14" fill="none" xmlns="http://www.w3.org/2000/svg">
<path fill-rule="evenodd" clip-rule="evenodd" d="M11.59 7.24369C11.7462 7.39997 11.834 7.61189 11.834 7.83286C11.834 8.05383 11.7462 8.26575 11.59 8.42203L6.59 13.422C6.43372 13.5783 6.2218 13.666 6.00083 13.666C5.77986 13.666 5.56794 13.5783 5.41166 13.422L0.411662 8.42203C0.259864 8.26486 0.175868 8.05436 0.177767 7.83586C0.179666 7.61736 0.267307 7.40835 0.421814 7.25384C0.576321 7.09934 0.785332 7.0117 1.00383 7.0098C1.22233 7.0079 1.43283 7.0919 1.59 7.24369L5.1675 10.8212V1.16619C5.1675 0.945179 5.25529 0.733217 5.41157 0.576937C5.56785 0.420656 5.77982 0.33286 6.00083 0.33286C6.22184 0.33286 6.4338 0.420656 6.59008 0.576937C6.74637 0.733217 6.83416 0.945179 6.83416 1.16619V10.8212L10.4117 7.24369C10.5679 7.08747 10.7799 6.9997 11.0008 6.9997C11.2218 6.9997 11.4337 7.08747 11.59 7.24369Z" fill="#C61531"/>
</svg>
