<svg width="16" height="16" viewBox="0 0 16 16" fill="none" xmlns="http://www.w3.org/2000/svg">
<path fill-rule="evenodd" clip-rule="evenodd" d="M10.334 1.3335C9.41351 1.3335 8.66732 2.07969 8.66732 3.00016V13.0002C8.66732 13.9206 9.41351 14.6668 10.334 14.6668H13.0007C13.9211 14.6668 14.6673 13.9206 14.6673 13.0002V3.00016C14.6673 2.07969 13.9211 1.3335 13.0007 1.3335H10.334ZM10.0007 3.00016C10.0007 2.81607 10.1499 2.66683 10.334 2.66683H13.0007C13.1847 2.66683 13.334 2.81607 13.334 3.00016V13.0002C13.334 13.1843 13.1847 13.3335 13.0007 13.3335H10.334C10.1499 13.3335 10.0007 13.1843 10.0007 13.0002V3.00016Z" fill="#B92F68"/>
<path fill-rule="evenodd" clip-rule="evenodd" d="M3.00065 7.3335C2.08018 7.3335 1.33398 8.07969 1.33398 9.00016V13.0002C1.33398 13.9206 2.08018 14.6668 3.00065 14.6668H5.66732C6.58779 14.6668 7.33398 13.9206 7.33398 13.0002V9.00016C7.33398 8.07969 6.58779 7.3335 5.66732 7.3335H3.00065ZM2.66732 9.00016C2.66732 8.81607 2.81656 8.66683 3.00065 8.66683H5.66732C5.85141 8.66683 6.00065 8.81607 6.00065 9.00016V13.0002C6.00065 13.1843 5.85141 13.3335 5.66732 13.3335H3.00065C2.81656 13.3335 2.66732 13.1843 2.66732 13.0002V9.00016Z" fill="#B92F68"/>
</svg>
