<svg width="18" height="25" viewBox="0 0 18 25" fill="none" xmlns="http://www.w3.org/2000/svg">
<path d="M10.1659 1.50065C10.1659 0.856319 9.64359 0.333984 8.99926 0.333984C8.35492 0.333984 7.83259 0.856319 7.83259 1.50065V3.25065C7.83259 3.28301 7.83391 3.31506 7.83649 3.34675C4.5239 3.90035 1.99926 6.77951 1.99926 10.2494V14.9173C1.99926 15.5009 1.52079 16.5128 0.997193 17.4456C0.260416 18.7581 0.39535 20.3404 1.80198 20.876C3.2167 21.4147 5.47972 21.9173 8.99926 21.9173C12.5188 21.9173 14.7818 21.4147 16.1965 20.876C17.6032 20.3404 17.7381 18.7581 17.0013 17.4456C16.4777 16.5128 15.9993 15.5009 15.9993 14.9173V10.2499C15.9993 6.78007 13.4746 3.90046 10.162 3.34676C10.1646 3.31507 10.1659 3.28301 10.1659 3.25065V1.50065Z" fill="#667185"/>
<path d="M5.40604 22.8793C5.44959 22.9173 5.50218 22.9617 5.56343 23.0107C5.73877 23.1509 5.98927 23.3327 6.30586 23.5137C6.93419 23.8727 7.8632 24.2507 8.99927 24.2507C10.1353 24.2507 11.0644 23.8727 11.6927 23.5137C12.0093 23.3327 12.2598 23.1509 12.4351 23.0107C12.4964 22.9617 12.549 22.9173 12.5925 22.8793C11.5724 23.0064 10.383 23.084 8.99927 23.084C7.61559 23.084 6.42611 23.0064 5.40604 22.8793Z" fill="#667185"/>
</svg>
