<svg width="15" height="16" viewBox="0 0 15 16" fill="none" xmlns="http://www.w3.org/2000/svg">
<path fill-rule="evenodd" clip-rule="evenodd" d="M4.66602 0.208984C5.05722 0.208984 5.37435 0.526116 5.37435 0.917318V1.62565H9.62435V0.917318C9.62435 0.526116 9.94148 0.208984 10.3327 0.208984C10.7239 0.208984 11.041 0.526116 11.041 0.917318V1.62565H11.7493C13.3142 1.62565 14.5827 2.89418 14.5827 4.45898V12.2507C14.5827 13.8155 13.3142 15.084 11.7493 15.084H3.24935C1.68454 15.084 0.416016 13.8155 0.416016 12.2507V4.45898C0.416016 2.89418 1.68454 1.62565 3.24935 1.62565H3.95768V0.917318C3.95768 0.526116 4.27481 0.208984 4.66602 0.208984ZM9.62435 3.04232C9.62435 3.43352 9.94148 3.75065 10.3327 3.75065C10.7239 3.75065 11.041 3.43352 11.041 3.04232H11.7493C12.5318 3.04232 13.166 3.67658 13.166 4.45898V4.81315H1.83268V4.45898C1.83268 3.67658 2.46695 3.04232 3.24935 3.04232H3.95768C3.95768 3.43352 4.27481 3.75065 4.66602 3.75065C5.05722 3.75065 5.37435 3.43352 5.37435 3.04232H9.62435ZM13.166 6.22982H1.83268V12.2507C1.83268 13.0331 2.46695 13.6673 3.24935 13.6673H11.7493C12.5318 13.6673 13.166 13.0331 13.166 12.2507V6.22982Z" fill="#344054"/>
</svg>
