<svg width="22" height="22" viewBox="0 0 22 22" fill="none" xmlns="http://www.w3.org/2000/svg">
<path d="M17.1875 11H11.6875C11.3229 11.0004 10.9734 11.1453 10.7156 11.4031C10.4578 11.6609 10.3129 12.0104 10.3125 12.375V16.5H2.75V9.625H1.375V20.625H2.75V17.875H19.25V20.625H20.625V14.4375C20.6239 13.5262 20.2614 12.6524 19.617 12.008C18.9726 11.3636 18.0988 11.0011 17.1875 11ZM19.25 16.5H11.6875V12.375H17.1875C17.7343 12.3755 18.2586 12.593 18.6453 12.9797C19.032 13.3664 19.2495 13.8907 19.25 14.4375V16.5Z" fill="#585858"/>
<path d="M6.53125 11.6875C6.73521 11.6875 6.93459 11.748 7.10418 11.8613C7.27377 11.9746 7.40595 12.1357 7.484 12.3241C7.56205 12.5125 7.58248 12.7199 7.54269 12.9199C7.50289 13.12 7.40468 13.3037 7.26045 13.448C7.11623 13.5922 6.93248 13.6904 6.73244 13.7302C6.5324 13.77 6.32504 13.7496 6.13661 13.6715C5.94817 13.5934 5.78711 13.4613 5.6738 13.2917C5.56048 13.1221 5.5 12.9227 5.5 12.7188C5.50036 12.4454 5.60913 12.1833 5.80245 11.9899C5.99577 11.7966 6.25786 11.6879 6.53125 11.6875ZM6.53125 10.3125C6.05534 10.3125 5.59012 10.4536 5.19441 10.718C4.7987 10.9824 4.49029 11.3582 4.30817 11.7979C4.12604 12.2376 4.07839 12.7214 4.17124 13.1882C4.26408 13.655 4.49326 14.0837 4.82978 14.4202C5.1663 14.7567 5.59505 14.9859 6.06181 15.0788C6.52858 15.1716 7.0124 15.124 7.45208 14.9418C7.89177 14.7597 8.26757 14.4513 8.53197 14.0556C8.79638 13.6599 8.9375 13.1947 8.9375 12.7188C8.9375 12.0806 8.68399 11.4685 8.23273 11.0173C7.78147 10.566 7.16943 10.3125 6.53125 10.3125ZM14.4375 4.125H11.6875V1.375H10.3125V4.125H7.5625V5.5H10.3125V8.25H11.6875V5.5H14.4375V4.125Z" fill="#585858"/>
</svg>
