<?xml version="1.0" encoding="UTF-8"?>
<svg version="1.1" xmlns="http://www.w3.org/2000/svg" width="222" height="206">
<path d="M0 0 C12.87982833 10.89418813 21.00774413 26.04858368 23.0625 42.81640625 C24.58485157 61.96598653 18.13517127 77.82235838 6.03515625 92.23046875 C-4.404852 103.54533803 -18.9328654 110.32565787 -34.25390625 111.19140625 C-44.80302039 111.53587081 -54.15459934 111.06076571 -63.9375 106.81640625 C-64.81277344 106.45417969 -65.68804687 106.09195313 -66.58984375 105.71875 C-82.23198751 98.60868465 -92.95534979 85.71128613 -98.9375 69.81640625 C-104.68748926 53.67723185 -102.97319977 36.17508032 -95.9375 20.75390625 C-87.85880871 5.43342826 -74.24089333 -5.65297383 -57.875 -11.2265625 C-37.4783389 -16.65717352 -16.97074463 -12.61522107 0 0 Z " fill="#343534" transform="translate(146.9375,51.18359375)"/>
<path d="M0 0 C4.14866582 0.66674986 5.81886615 1.31264078 8.5 4.5625 C9.0367778 8.45620361 9.36428967 11.05439693 7.38598633 14.50634766 C5.82285143 16.47923637 4.17486361 18.30390803 2.4375 20.125 C1.87611328 20.74568359 1.31472656 21.36636719 0.73632812 22.00585938 C-2.14278567 25.1613681 -5.12589942 28.19732616 -8.1640625 31.19921875 C-10.91682837 33.93128425 -13.40586287 36.76565066 -15.8125 39.8125 C-20.48301884 45.61843807 -25.43759304 51.09848247 -30.5 56.5625 C-39.20713917 53.03580976 -45.98089246 41.88146296 -51.78515625 34.6796875 C-53.32726076 32.70043226 -53.32726076 32.70043226 -54.5 31.5625 C-54.78800741 28.63442466 -54.98146102 26.41252788 -54.5 23.5625 C-51.85321777 20.35427912 -50.27542519 19.65671054 -46.15625 19.15625 C-41.49006839 19.67471462 -40.1857365 21.13977507 -37.0625 24.5625 C-35.76505859 25.9546875 -35.76505859 25.9546875 -34.44140625 27.375 C-33.80074219 28.096875 -33.16007812 28.81875 -32.5 29.5625 C-29.60368126 28.26233484 -27.64805694 26.92739577 -25.51171875 24.5859375 C-24.97353516 24.00126709 -24.43535156 23.41659668 -23.88085938 22.81420898 C-23.32205078 22.19489502 -22.76324219 21.57558105 -22.1875 20.9375 C-21.60935547 20.30593994 -21.03121094 19.67437988 -20.43554688 19.02368164 C-17.41750589 15.7166522 -14.43772489 12.37870788 -11.5 9 C-10.9740625 8.40058594 -10.448125 7.80117187 -9.90625 7.18359375 C-8.58457992 5.66000185 -7.29122893 4.11197472 -6 2.5625 C-3.5 0.5625 -3.5 0.5625 0 0 Z " fill="#07D99B" transform="translate(132.5,70.4375)"/>
<path d="M0 0 C4.3890815 0.51035831 7.33708062 1.52214277 11 4 C10.67 5.32 10.34 6.64 10 8 C5.6109185 7.48964169 2.66291938 6.47785723 -1 4 C-0.67 2.68 -0.34 1.36 0 0 Z " fill="#8A8A8A" transform="translate(19,62)"/>
<path d="M0 0 C1.8125 0.0625 1.8125 0.0625 4 1 C7.15759312 6.77077364 7.15759312 6.77077364 6.6875 10.4375 C6.460625 10.953125 6.23375 11.46875 6 12 C4.68 12 3.36 12 2 12 C-1.57142857 4.71428571 -1.57142857 4.71428571 0 0 Z " fill="#6F6F6F" transform="translate(70,11)"/>
<path d="M0 0 C1.32 0.66 2.64 1.32 4 2 C3.01 4.97 2.02 7.94 1 11 C-0.65 11.33 -2.3 11.66 -4 12 C-3.5317879 7.22423661 -2.75668002 3.95523655 0 0 Z " fill="#313131" transform="translate(142,11)"/>
<path d="M0 0 C1.65 0 3.3 0 5 0 C8.07692308 6.4 8.07692308 6.4 7.6875 9.4375 C7.460625 9.953125 7.23375 10.46875 7 11 C5.68 11 4.36 11 3 11 C0 4.5 0 4.5 0 0 Z " fill="#323232" transform="translate(138,178)"/>
<path d="M0 0 C0 1.32 0 2.64 0 4 C-6.5 7 -6.5 7 -11 7 C-11 5.35 -11 3.7 -11 2 C-3.57142857 -1.57142857 -3.57142857 -1.57142857 0 0 Z " fill="#8F8F8F" transform="translate(196,63)"/>
<path d="M0 0 C0.86625 0.37125 0.86625 0.37125 1.75 0.75 C1.45381606 4.30420724 0.94662957 5.55337043 -1.625 8.125 C-2.49125 8.66125 -3.3575 9.1975 -4.25 9.75 C-5.24 9.42 -6.23 9.09 -7.25 8.75 C-6.89947365 5.59526281 -6.38480924 3.9266466 -4.4375 1.375 C-2.25 -0.25 -2.25 -0.25 0 0 Z " fill="#2F2F2F" transform="translate(54.25,151.25)"/>
<path d="M0 0 C4.05606165 0.46800711 7.46588679 0.87953208 11 3 C11 4.32 11 5.64 11 7 C9.741875 6.87625 8.48375 6.7525 7.1875 6.625 C6.12595703 6.52058594 6.12595703 6.52058594 5.04296875 6.4140625 C3 6 3 6 0 4 C0 2.68 0 1.36 0 0 Z " fill="#313131" transform="translate(185,131)"/>
<path d="M0 0 C0 0.99 0 1.98 0 3 C-3.85756507 5.15305957 -6.55129785 6.39253254 -11 6 C-11 4.68 -11 3.36 -11 2 C-6.89657963 -0.38570952 -4.61380251 -1.49270081 0 0 Z " fill="#878787" transform="translate(30,132)"/>
<path d="M0 0 C3.78695173 0.5409931 5.62745972 2.03432464 8 5 C8 6.32 8 7.64 8 9 C4.71006898 9.36554789 3.36900115 9.26218503 0.625 7.3125 C-1 5 -1 5 -0.75 2.25 C-0.5025 1.5075 -0.255 0.765 0 0 Z " fill="#353535" transform="translate(48,40)"/>
<path d="M0 0 C0.5775 0.226875 1.155 0.45375 1.75 0.6875 C1.36094382 3.41089328 0.68262433 4.77653214 -1 7 C-3.25 8.6875 -3.25 8.6875 -6 8.4375 C-6.7425 8.19 -7.485 7.9425 -8.25 7.6875 C-6.86345583 3.41232214 -5.12511737 -0.71182186 0 0 Z " fill="#303030" transform="translate(166.25,40.3125)"/>
<path d="M0 0 C3.36295835 1.44126786 5.62927102 3.20592655 8 6 C8 6.99 8 7.98 8 9 C6.203125 9.68359375 6.203125 9.68359375 4 10 C2.296875 8.78515625 2.296875 8.78515625 0.75 7.0625 C0.22921875 6.49660156 -0.2915625 5.93070313 -0.828125 5.34765625 C-1.21484375 4.90292969 -1.6015625 4.45820313 -2 4 C-1.34 2.68 -0.68 1.36 0 0 Z " fill="#636363" transform="translate(160,151)"/>
<path d="M0 0 C2.475 0.495 2.475 0.495 5 1 C5 3.97 5 6.94 5 10 C3.35 10.33 1.7 10.66 0 11 C0 7.37 0 3.74 0 0 Z " fill="#343434" transform="translate(105,16)"/>
<path d="M0 0 C0.598125 0.226875 1.19625 0.45375 1.8125 0.6875 C1.42344382 3.41089328 0.74512433 4.77653214 -0.9375 7 C-3.1875 8.6875 -3.1875 8.6875 -5.9375 8.4375 C-6.68 8.19 -7.4225 7.9425 -8.1875 7.6875 C-3.5375 -0.50535714 -3.5375 -0.50535714 0 0 Z " fill="#6E6E6E" transform="translate(75.1875,174.3125)"/>
<path d="M0 0 C3.3 0 6.6 0 10 0 C10.33 1.32 10.66 2.64 11 4 C7.78548731 5.60725635 4.56387464 5.05748185 1 5 C0.67 3.35 0.34 1.7 0 0 Z " fill="#686868" transform="translate(181,98)"/>
<path d="M0 0 C3.3 0 6.6 0 10 0 C10.33 1.32 10.66 2.64 11 4 C7.78548731 5.60725635 4.56387464 5.05748185 1 5 C0.67 3.35 0.34 1.7 0 0 Z " fill="#303030" transform="translate(23,98)"/>
<path d="M0 0 C2.87109375 2.1875 2.87109375 2.1875 5.4375 5 C6.30246094 5.928125 7.16742188 6.85625 8.05859375 7.8125 C9.01958984 8.8953125 9.01958984 8.8953125 10 10 C9.34 10.66 8.68 11.32 8 12 C7.61328125 11.50628906 7.2265625 11.01257813 6.828125 10.50390625 C6.30734375 9.86324219 5.7865625 9.22257812 5.25 8.5625 C4.48429687 7.60537109 4.48429687 7.60537109 3.703125 6.62890625 C1.80332371 4.81189446 0.56413092 4.39576803 -2 4 C-1.67 3.01 -1.34 2.02 -1 1 C-1.7425 1.350625 -2.485 1.70125 -3.25 2.0625 C-6.1322726 3.04509293 -7.21176345 3.0326802 -10 2 C-6.24157108 -0.50561928 -4.45312495 -0.53342245 0 0 Z " fill="#1BC18F" transform="translate(90,90)"/>
<path d="M0 0 C5.22306897 3.79859562 10.91835536 8.75506609 13 15 C11.35 14.67 9.7 14.34 8 14 C8 12.68 8 11.36 8 10 C7.01 10 6.02 10 5 10 C3.33333333 6.66666667 1.66666667 3.33333333 0 0 Z " fill="#1B4D40" transform="translate(83,108)"/>
<path d="M0 0 C0.33 1.32 0.66 2.64 1 4 C0.01 4.33 -0.98 4.66 -2 5 C-3.27117204 6.79978346 -3.27117204 6.79978346 -4.375 8.9375 C-6.09821156 11.86538833 -6.73384763 12.85805207 -9.8125 14.5 C-10.534375 14.665 -11.25625 14.83 -12 15 C-9.832705 11.10728568 -7.32586971 7.96290186 -4.3125 4.6875 C-3.50425781 3.80449219 -2.69601563 2.92148438 -1.86328125 2.01171875 C-1.24839844 1.34785156 -0.63351563 0.68398437 0 0 Z " fill="#165644" transform="translate(124,101)"/>
<path d="M0 0 C0.33 0.66 0.66 1.32 1 2 C0.67 2.99 0.34 3.98 0 5 C-0.66 5 -1.32 5 -2 5 C-2.66 6.98 -3.32 8.96 -4 11 C-7 11 -7 11 -9 10 C-6.03 6.7 -3.06 3.4 0 0 Z " fill="#1D483D" transform="translate(111,116)"/>
<path d="M0 0 C-0.66 1.32 -1.32 2.64 -2 4 C-3.65 4 -5.3 4 -7 4 C-7 2.68 -7 1.36 -7 0 C-3.98968256 -0.93423645 -3.13349732 -1.04449911 0 0 Z " fill="#919191" transform="translate(26,134)"/>
<path d="M0 0 C2.86724686 0.57344937 3.8614515 0.8614515 6 3 C6 3.99 6 4.98 6 6 C4.68 5.67 3.36 5.34 2 5 C2 4.34 2 3.68 2 3 C1.01 2.67 0.02 2.34 -1 2 C-0.67 1.34 -0.34 0.68 0 0 Z " fill="#757575" transform="translate(161,153)"/>
<path d="M0 0 C2.31 0.33 4.62 0.66 7 1 C5.02 1.99 5.02 1.99 3 3 C3.99 3.99 4.98 4.98 6 6 C4.35 5.67 2.7 5.34 1 5 C0.67 3.35 0.34 1.7 0 0 Z " fill="#2B2B2B" transform="translate(185,131)"/>
<path d="M0 0 C2.875 -0.1875 2.875 -0.1875 6 0 C6.66 0.99 7.32 1.98 8 3 C6.02 3.99 6.02 3.99 4 5 C2.68 3.35 1.36 1.7 0 0 Z " fill="#19CA94" transform="translate(96,122)"/>
<path d="M0 0 C0 3.64478912 -0.85802506 5.09303401 -3 8 C-5.1875 8.8125 -5.1875 8.8125 -7 9 C-5.03681826 5.46627288 -2.95929119 2.75520215 0 0 Z " fill="#1CBF8F" transform="translate(124,76)"/>
<path d="M0 0 C1.65 0 3.3 0 5 0 C5 0.66 5 1.32 5 2 C4.34 2 3.68 2 3 2 C2.67 3.65 2.34 5.3 2 7 C0 4 0 4 0 0 Z " fill="#2D2D2D" transform="translate(138,178)"/>
<path d="M0 0 C1.32 0.66 2.64 1.32 4 2 C3.67 2.66 3.34 3.32 3 4 C2.01 4 1.02 4 0 4 C-0.33 4.99 -0.66 5.98 -1 7 C-1.66 6.67 -2.32 6.34 -3 6 C-2.01 4.02 -1.02 2.04 0 0 Z " fill="#363636" transform="translate(51,152)"/>
<path d="M0 0 C3.125 0.375 3.125 0.375 6 1 C4.68 2.32 3.36 3.64 2 5 C2 4.34 2 3.68 2 3 C0.68 2.67 -0.64 2.34 -2 2 C-1.34 1.34 -0.68 0.68 0 0 Z " fill="#25423A" transform="translate(104,91)"/>
<path d="M0 0 C0.33 0.99 0.66 1.98 1 3 C0.01 4.485 0.01 4.485 -1 6 C-3.625 6.1875 -3.625 6.1875 -6 6 C-4 4 -2 2 0 0 Z " fill="#16BB8A" transform="translate(106,96)"/>
<path d="M0 0 C0.66 0 1.32 0 2 0 C1.8125 1.875 1.8125 1.875 1 4 C-1.5625 5.25 -1.5625 5.25 -4 6 C-1.125 1.125 -1.125 1.125 0 0 Z " fill="#1C4F40" transform="translate(116,110)"/>
<path d="M0 0 C0.33 0 0.66 0 1 0 C1 2.64 1 5.28 1 8 C-0.32 6.68 -1.64 5.36 -3 4 C-2.67 3.34 -2.34 2.68 -2 2 C-1.34 2 -0.68 2 0 2 C0 1.34 0 0.68 0 0 Z " fill="#20493F" transform="translate(77,94)"/>
<path d="M0 0 C1.32 0.66 2.64 1.32 4 2 C2.35 3.32 0.7 4.64 -1 6 C-1.042721 4.33388095 -1.04063832 2.66617115 -1 1 C-0.67 0.67 -0.34 0.34 0 0 Z " fill="#253D36" transform="translate(111,85)"/>
</svg>
