<svg width="27" height="27" viewBox="0 0 27 27" fill="none" xmlns="http://www.w3.org/2000/svg">
<g clip-path="url(#clip0_9142_12539)">
<path d="M11.6758 23.3513C11.6758 23.3513 10.0078 23.3513 10.0078 21.6833C10.0078 20.0154 11.6758 15.0115 18.3475 15.0115C25.0193 15.0115 26.6873 20.0154 26.6873 21.6833C26.6873 23.3513 25.0193 23.3513 25.0193 23.3513H11.6758ZM18.3475 13.3436C19.6746 13.3436 20.9474 12.8164 21.8858 11.878C22.8242 10.9396 23.3514 9.66687 23.3514 8.33977C23.3514 7.01267 22.8242 5.73993 21.8858 4.80153C20.9474 3.86313 19.6746 3.33594 18.3475 3.33594C17.0204 3.33594 15.7477 3.86313 14.8093 4.80153C13.8709 5.73993 13.3437 7.01267 13.3437 8.33977C13.3437 9.66687 13.8709 10.9396 14.8093 11.878C15.7477 12.8164 17.0204 13.3436 18.3475 13.3436Z" fill="#F8F8F8"/>
<path fill-rule="evenodd" clip-rule="evenodd" d="M8.7 23.3522C8.45273 22.8314 8.32942 22.2605 8.33972 21.6842C8.33972 19.4241 9.47392 17.0974 11.5689 15.4795C10.5232 15.1573 9.4338 14.9997 8.33972 15.0124C1.66794 15.0124 0 20.0163 0 21.6842C0 23.3522 1.66794 23.3522 1.66794 23.3522H8.7Z" fill="#F8F8F8"/>
<path d="M7.5058 13.3436C8.61171 13.3436 9.67233 12.9043 10.4543 12.1223C11.2363 11.3403 11.6757 10.2797 11.6757 9.17377C11.6757 8.06785 11.2363 7.00723 10.4543 6.22523C9.67233 5.44323 8.61171 5.00391 7.5058 5.00391C6.39988 5.00391 5.33926 5.44323 4.55726 6.22523C3.77526 7.00723 3.33594 8.06785 3.33594 9.17377C3.33594 10.2797 3.77526 11.3403 4.55726 12.1223C5.33926 12.9043 6.39988 13.3436 7.5058 13.3436Z" fill="#F8F8F8"/>
</g>
<defs>
<clipPath id="clip0_9142_12539">
<rect width="26.6871" height="26.6871" fill="white"/>
</clipPath>
</defs>
</svg>
