<svg width="20" height="20" viewBox="0 0 20 20" fill="none" xmlns="http://www.w3.org/2000/svg">
<path d="M3.50039 0.900391C2.81083 0.900391 2.14951 1.17432 1.66191 1.66191C1.17432 2.14951 0.900391 2.81083 0.900391 3.50039V6.10039C0.900391 6.78995 1.17432 7.45127 1.66191 7.93887C2.14951 8.42646 2.81083 8.70039 3.50039 8.70039H6.10039C6.78995 8.70039 7.45127 8.42646 7.93887 7.93887C8.42646 7.45127 8.70039 6.78995 8.70039 6.10039V3.50039C8.70039 2.81083 8.42646 2.14951 7.93887 1.66191C7.45127 1.17432 6.78995 0.900391 6.10039 0.900391H3.50039ZM3.50039 11.3004C2.81083 11.3004 2.14951 11.5743 1.66191 12.0619C1.17432 12.5495 0.900391 13.2108 0.900391 13.9004V16.5004C0.900391 17.19 1.17432 17.8513 1.66191 18.3389C2.14951 18.8265 2.81083 19.1004 3.50039 19.1004H6.10039C6.78995 19.1004 7.45127 18.8265 7.93887 18.3389C8.42646 17.8513 8.70039 17.19 8.70039 16.5004V13.9004C8.70039 13.2108 8.42646 12.5495 7.93887 12.0619C7.45127 11.5743 6.78995 11.3004 6.10039 11.3004H3.50039ZM11.3004 3.50039C11.3004 2.81083 11.5743 2.14951 12.0619 1.66191C12.5495 1.17432 13.2108 0.900391 13.9004 0.900391H16.5004C17.19 0.900391 17.8513 1.17432 18.3389 1.66191C18.8265 2.14951 19.1004 2.81083 19.1004 3.50039V6.10039C19.1004 6.78995 18.8265 7.45127 18.3389 7.93887C17.8513 8.42646 17.19 8.70039 16.5004 8.70039H13.9004C13.2108 8.70039 12.5495 8.42646 12.0619 7.93887C11.5743 7.45127 11.3004 6.78995 11.3004 6.10039V3.50039ZM11.3004 13.9004C11.3004 13.2108 11.5743 12.5495 12.0619 12.0619C12.5495 11.5743 13.2108 11.3004 13.9004 11.3004H16.5004C17.19 11.3004 17.8513 11.5743 18.3389 12.0619C18.8265 12.5495 19.1004 13.2108 19.1004 13.9004V16.5004C19.1004 17.19 18.8265 17.8513 18.3389 18.3389C17.8513 18.8265 17.19 19.1004 16.5004 19.1004H13.9004C13.2108 19.1004 12.5495 18.8265 12.0619 18.3389C11.5743 17.8513 11.3004 17.19 11.3004 16.5004V13.9004Z" fill="#585858"/>
</svg>
