<svg width="29" height="29" viewBox="0 0 29 29" fill="none" xmlns="http://www.w3.org/2000/svg">
<path d="M1.7793 24.9077H26.6873V26.6869H1.7793V24.9077ZM24.0185 9.78505C24.2545 9.78505 24.4807 9.69133 24.6476 9.5245C24.8144 9.35767 24.9081 9.13141 24.9081 8.89548V6.22677C24.908 6.04395 24.8516 5.86559 24.7466 5.71597C24.6415 5.56635 24.4929 5.45273 24.321 5.39057L14.5357 1.83229C14.3403 1.76163 14.1263 1.76163 13.9308 1.83229L4.14555 5.39057C3.97363 5.45273 3.82502 5.56635 3.71997 5.71597C3.61492 5.86559 3.55851 6.04395 3.55844 6.22677V8.89548C3.55844 9.13141 3.65216 9.35767 3.81899 9.5245C3.98581 9.69133 4.21208 9.78505 4.44801 9.78505H5.33758V21.3495H3.55844V23.1286H24.9081V21.3495H23.129V9.78505H24.0185ZM5.33758 6.84947L14.2333 3.61143L23.129 6.84947V8.00591H5.33758V6.84947ZM16.0124 21.3495H12.4541V9.78505H16.0124V21.3495ZM7.11672 9.78505H10.675V21.3495H7.11672V9.78505ZM21.3498 21.3495H17.7916V9.78505H21.3498V21.3495Z" fill="#F8F8F8"/>
</svg>
