<svg width="18" height="18" viewBox="0 0 18 18" fill="none" xmlns="http://www.w3.org/2000/svg">
<path fill-rule="evenodd" clip-rule="evenodd" d="M3.40017 0.666992C1.89014 0.666992 0.666016 1.89111 0.666016 3.40114C0.666016 3.96212 0.838568 4.50951 1.16026 4.96908L6.19807 12.1659C6.39417 12.4461 6.49935 12.7798 6.49935 13.1217V14.9644C6.49935 16.6724 8.29682 17.7833 9.82452 17.0194C10.851 16.5062 11.4993 15.4571 11.4993 14.3095V13.1217C11.4993 12.7798 11.6045 12.4461 11.8006 12.1659L16.8384 4.96908C17.1601 4.50951 17.3327 3.96212 17.3327 3.40114C17.3327 1.89111 16.1086 0.666992 14.5985 0.666992H3.40017ZM9.83268 14.3095C9.83268 14.8258 9.54097 15.2978 9.07917 15.5287C8.65963 15.7385 8.16602 15.4334 8.16602 14.9644V13.1217C8.16602 12.4378 7.95565 11.7705 7.56346 11.2102L2.52565 4.01331C2.40005 3.83388 2.33268 3.62016 2.33268 3.40114C2.33268 2.81159 2.81061 2.33366 3.40017 2.33366H14.5985C15.1881 2.33366 15.666 2.81159 15.666 3.40114C15.666 3.62016 15.5986 3.83388 15.473 4.01331L10.4352 11.2102C10.043 11.7705 9.83268 12.4378 9.83268 13.1217V14.3095Z" fill="#C61531"/>
</svg>
