<svg width="14" height="14" viewBox="0 0 14 14" fill="none" xmlns="http://www.w3.org/2000/svg">
<path fill-rule="evenodd" clip-rule="evenodd" d="M9.33398 0.333984C8.41351 0.333984 7.66732 1.08018 7.66732 2.00065V12.0007C7.66732 12.9211 8.41351 13.6673 9.33398 13.6673H12.0007C12.9211 13.6673 13.6673 12.9211 13.6673 12.0007V2.00065C13.6673 1.08018 12.9211 0.333984 12.0007 0.333984H9.33398ZM9.00065 2.00065C9.00065 1.81656 9.14989 1.66732 9.33398 1.66732H12.0007C12.1847 1.66732 12.334 1.81656 12.334 2.00065V12.0007C12.334 12.1847 12.1847 12.334 12.0007 12.334H9.33398C9.14989 12.334 9.00065 12.1847 9.00065 12.0007V2.00065Z" fill="#02B1B0"/>
<path fill-rule="evenodd" clip-rule="evenodd" d="M2.00065 6.33398C1.08018 6.33398 0.333984 7.08018 0.333984 8.00065V12.0007C0.333984 12.9211 1.08018 13.6673 2.00065 13.6673H4.66732C5.58779 13.6673 6.33398 12.9211 6.33398 12.0007V8.00065C6.33398 7.08018 5.58779 6.33398 4.66732 6.33398H2.00065ZM1.66732 8.00065C1.66732 7.81656 1.81656 7.66732 2.00065 7.66732H4.66732C4.85141 7.66732 5.00065 7.81656 5.00065 8.00065V12.0007C5.00065 12.1847 4.85141 12.334 4.66732 12.334H2.00065C1.81656 12.334 1.66732 12.1847 1.66732 12.0007V8.00065Z" fill="#02B1B0"/>
</svg>
