<svg width="26" height="27" viewBox="0 0 26 27" fill="none" xmlns="http://www.w3.org/2000/svg">
<path d="M1.14844 20.2364L5.96254 24.2489C6.67049 24.8383 7.56262 25.161 8.48383 25.1609H21.175C22.0811 25.1609 22.8158 24.4261 22.8158 23.52C22.8158 21.7079 21.3464 20.2364 19.5322 20.2364H10.7097M16.3786 1.03127C16.1174 1.03127 15.8669 1.13503 15.6822 1.31973C15.4975 1.50443 15.3938 1.75494 15.3938 2.01615V4.7876H12.6243C12.3631 4.7876 12.1126 4.89137 11.9279 5.07607C11.7432 5.26077 11.6394 5.51128 11.6394 5.77248V8.97335C11.6394 9.23455 11.7432 9.48506 11.9279 9.66976C12.1126 9.85447 12.3631 9.95823 12.6243 9.95823H15.3938V12.7277C15.3938 12.9889 15.4975 13.2394 15.6822 13.4241C15.8669 13.6088 16.1174 13.7126 16.3786 13.7126H19.5795C19.8407 13.7126 20.0912 13.6088 20.2759 13.4241C20.4606 13.2394 20.5644 12.9889 20.5644 12.7277V9.95823H23.3339C23.5951 9.95823 23.8456 9.85447 24.0303 9.66976C24.215 9.48506 24.3188 9.23455 24.3188 8.97335V5.77248C24.3188 5.51128 24.215 5.26077 24.0303 5.07607C23.8456 4.89137 23.5951 4.7876 23.3339 4.7876H20.5644V2.01418C20.5644 1.75297 20.4606 1.50246 20.2759 1.31776C20.0912 1.13306 19.8407 1.0293 19.5795 1.0293L16.3786 1.03127Z" stroke="#F8F8F8" stroke-width="1.96976" stroke-linecap="round" stroke-linejoin="round"/>
<path d="M7.05772 18.2662L8.53505 19.7435C8.72905 19.9375 8.95937 20.0914 9.21285 20.1964C9.46633 20.3014 9.738 20.3555 10.0124 20.3555C10.2867 20.3555 10.5584 20.3014 10.8119 20.1964C11.0654 20.0914 11.2957 19.9375 11.4897 19.7435C11.6837 19.5495 11.8376 19.3192 11.9426 19.0657C12.0476 18.8122 12.1016 18.5406 12.1016 18.2662C12.1016 17.9918 12.0476 17.7202 11.9426 17.4667C11.8376 17.2132 11.6837 16.9829 11.4897 16.7889L9.19689 14.4961C8.45825 13.7572 7.45638 13.342 6.41164 13.3418H1.14844" stroke="#F8F8F8" stroke-width="1.96976" stroke-linecap="round" stroke-linejoin="round"/>
</svg>
