<svg width="48" height="48" viewBox="0 0 48 48" fill="none" xmlns="http://www.w3.org/2000/svg">
<rect width="48" height="48" rx="24" fill="#FAEAEC"/>
<path d="M30.75 24H24.75C24.3523 24.0004 23.971 24.1586 23.6898 24.4398C23.4086 24.721 23.2504 25.1023 23.25 25.5V30H15V22.5H13.5V34.5H15V31.5H33V34.5H34.5V27.75C34.4988 26.7558 34.1033 25.8027 33.4003 25.0997C32.6973 24.3967 31.7442 24.0012 30.75 24ZM33 30H24.75V25.5H30.75C31.3466 25.5006 31.9185 25.7378 32.3403 26.1597C32.7622 26.5815 32.9994 27.1534 33 27.75V30Z" fill="#C61531"/>
<path d="M19.125 24.75C19.3475 24.75 19.565 24.816 19.75 24.9396C19.935 25.0632 20.0792 25.2389 20.1644 25.4445C20.2495 25.65 20.2718 25.8762 20.2284 26.0945C20.185 26.3127 20.0778 26.5132 19.9205 26.6705C19.7632 26.8278 19.5627 26.935 19.3445 26.9784C19.1262 27.0218 18.9 26.9995 18.6945 26.9144C18.4889 26.8292 18.3132 26.685 18.1896 26.5C18.066 26.315 18 26.0975 18 25.875C18.0004 25.5768 18.1191 25.2908 18.3299 25.0799C18.5408 24.8691 18.8268 24.7504 19.125 24.75ZM19.125 23.25C18.6058 23.25 18.0983 23.404 17.6666 23.6924C17.235 23.9808 16.8985 24.3908 16.6998 24.8705C16.5011 25.3501 16.4492 25.8779 16.5504 26.3871C16.6517 26.8963 16.9017 27.364 17.2688 27.7312C17.636 28.0983 18.1037 28.3483 18.6129 28.4496C19.1221 28.5508 19.6499 28.4989 20.1295 28.3002C20.6092 28.1015 21.0192 27.7651 21.3076 27.3334C21.596 26.9017 21.75 26.3942 21.75 25.875C21.75 25.1788 21.4734 24.5111 20.9812 24.0188C20.4889 23.5266 19.8212 23.25 19.125 23.25ZM27.75 16.5H24.75V13.5H23.25V16.5H20.25V18H23.25V21H24.75V18H27.75V16.5Z" fill="#C61531"/>
</svg>
