<svg width="30" height="30" viewBox="0 0 30 30" fill="none" xmlns="http://www.w3.org/2000/svg">
<mask id="mask0_9142_12339" style="mask-type:alpha" maskUnits="userSpaceOnUse" x="2" y="2" width="25" height="25">
<path d="M23.2405 17.125H6.11624C4.76518 17.125 3.66992 18.2203 3.66992 19.5713V23.2408C3.66992 24.5919 4.76518 25.6871 6.11624 25.6871H23.2405C24.5915 25.6871 25.6868 24.5919 25.6868 23.2408V19.5713C25.6868 18.2203 24.5915 17.125 23.2405 17.125Z" stroke="white" stroke-width="1.77914"/>
<path d="M12.232 4.28125H6.11624C5.46744 4.28125 4.84521 4.53899 4.38643 4.99776C3.92766 5.45653 3.66992 6.07876 3.66992 6.72757V10.397C3.66992 11.0458 3.92766 11.6681 4.38643 12.1269C4.84521 12.5856 5.46744 12.8434 6.11624 12.8434H12.232" stroke="white" stroke-width="1.77914" stroke-linecap="round"/>
<path d="M20.795 13.4552C23.4971 13.4552 25.6876 11.2647 25.6876 8.56256C25.6876 5.86043 23.4971 3.66992 20.795 3.66992C18.0929 3.66992 15.9023 5.86043 15.9023 8.56256C15.9023 11.2647 18.0929 13.4552 20.795 13.4552Z" fill="white" stroke="white" stroke-width="1.77914"/>
<path d="M20.7937 10.398C21.807 10.398 22.6285 9.57655 22.6285 8.56325C22.6285 7.54996 21.807 6.72852 20.7937 6.72852C19.7804 6.72852 18.959 7.54996 18.959 8.56325C18.959 9.57655 19.7804 10.398 20.7937 10.398Z" fill="black"/>
</mask>
<g mask="url(#mask0_9142_12339)">
<path d="M0 0H29.3558V29.3558H0V0Z" fill="#F8F8F8"/>
</g>
</svg>
