<svg width="30" height="30" viewBox="0 0 30 30" fill="none" xmlns="http://www.w3.org/2000/svg">
<path d="M26.9104 20.7971C26.9099 22.4698 26.3381 24.0922 25.2898 25.3957C24.2414 26.6992 22.7794 27.6056 21.1457 27.9648L20.3653 25.6237C21.0799 25.506 21.7595 25.2312 22.3551 24.8192C22.9508 24.4072 23.4476 23.8681 23.8097 23.241H20.7946C20.1458 23.241 19.5236 22.9832 19.0648 22.5245C18.6061 22.0657 18.3483 21.4435 18.3483 20.7946V15.902C18.3483 15.2532 18.6061 14.631 19.0648 14.1722C19.5236 13.7134 20.1458 13.4557 20.7946 13.4557H24.3883C24.0898 11.0912 22.9387 8.91689 21.1511 7.34073C19.3635 5.76457 17.0621 4.8949 14.6789 4.8949C12.2956 4.8949 9.99424 5.76457 8.2066 7.34073C6.41896 8.91689 5.26791 11.0912 4.96942 13.4557H8.56306C9.21186 13.4557 9.83409 13.7134 10.2929 14.1722C10.7516 14.631 11.0094 15.2532 11.0094 15.902V20.7946C11.0094 21.4435 10.7516 22.0657 10.2929 22.5245C9.83409 22.9832 9.21186 23.241 8.56306 23.241H4.89358C4.24478 23.241 3.62255 22.9832 3.16378 22.5245C2.705 22.0657 2.44727 21.4435 2.44727 20.7946V14.6789C2.44727 7.92335 7.92335 2.44727 14.6789 2.44727C21.4344 2.44727 26.9104 7.92335 26.9104 14.6789V20.7971Z" fill="#C61531"/>
</svg>
