<svg width="28" height="23" viewBox="0 0 28 23" fill="none" xmlns="http://www.w3.org/2000/svg">
<path d="M8.05 3.85039C8.05 5.20227 6.95187 6.30039 5.6 6.30039C4.24813 6.30039 3.15 5.20227 3.15 3.85039C3.15 2.49852 4.24813 1.40039 5.6 1.40039C6.95187 1.40039 8.05 2.49852 8.05 3.85039ZM2.8 10.7498C2.3625 11.2398 2.1 11.8916 2.1 12.6004C2.1 13.3091 2.3625 13.961 2.8 14.451V10.7498ZM9.1175 8.59289C7.81812 9.74351 7 11.4279 7 13.3004C7 14.801 7.525 16.1791 8.4 17.2598V18.2004C8.4 18.9748 7.77437 19.6004 7 19.6004H4.2C3.42562 19.6004 2.8 18.9748 2.8 18.2004V17.0279C1.14625 16.2404 0 14.556 0 12.6004C0 9.89226 2.19187 7.70039 4.9 7.70039H6.3C7.35 7.70039 8.32125 8.02851 9.1175 8.58851V8.59289ZM19.6 18.2004V17.2598C20.475 16.1791 21 14.801 21 13.3004C21 11.4279 20.1819 9.74352 18.8825 8.58851C19.6787 8.02851 20.65 7.70039 21.7 7.70039H23.1C25.8081 7.70039 28 9.89226 28 12.6004C28 14.556 26.8538 16.2404 25.2 17.0279V18.2004C25.2 18.9748 24.5744 19.6004 23.8 19.6004H21C20.2256 19.6004 19.6 18.9748 19.6 18.2004ZM24.85 3.85039C24.85 5.20227 23.7519 6.30039 22.4 6.30039C21.0481 6.30039 19.95 5.20227 19.95 3.85039C19.95 2.49852 21.0481 1.40039 22.4 1.40039C23.7519 1.40039 24.85 2.49852 24.85 3.85039ZM25.2 10.7498V14.4554C25.6375 13.961 25.9 13.3135 25.9 12.6048C25.9 11.896 25.6375 11.2441 25.2 10.7541V10.7498ZM14 7.00039C12.4556 7.00039 11.2 5.74477 11.2 4.20039C11.2 2.65602 12.4556 1.40039 14 1.40039C15.5444 1.40039 16.8 2.65602 16.8 4.20039C16.8 5.74477 15.5444 7.00039 14 7.00039ZM10.5 13.3004C10.5 14.0091 10.7625 14.6566 11.2 15.151V11.4498C10.7625 11.9441 10.5 12.5916 10.5 13.3004ZM16.8 11.4498V15.1554C17.2375 14.661 17.5 14.0135 17.5 13.3048C17.5 12.596 17.2375 11.9441 16.8 11.4541V11.4498ZM19.6 13.3004C19.6 15.256 18.4537 16.9404 16.8 17.7279V19.6004C16.8 20.3748 16.1744 21.0004 15.4 21.0004H12.6C11.8256 21.0004 11.2 20.3748 11.2 19.6004V17.7279C9.54625 16.9404 8.4 15.256 8.4 13.3004C8.4 10.5923 10.5919 8.40039 13.3 8.40039H14.7C17.4081 8.40039 19.6 10.5923 19.6 13.3004Z" fill="#585858"/>
</svg>
