<svg width="16" height="16" viewBox="0 0 16 16" fill="none" xmlns="http://www.w3.org/2000/svg">
<path fill-rule="evenodd" clip-rule="evenodd" d="M10.334 1.33398C9.41351 1.33398 8.66732 2.08018 8.66732 3.00065V13.0007C8.66732 13.9211 9.41351 14.6673 10.334 14.6673H13.0007C13.9211 14.6673 14.6673 13.9211 14.6673 13.0007V3.00065C14.6673 2.08018 13.9211 1.33398 13.0007 1.33398H10.334ZM10.0007 3.00065C10.0007 2.81656 10.1499 2.66732 10.334 2.66732H13.0007C13.1847 2.66732 13.334 2.81656 13.334 3.00065V13.0007C13.334 13.1847 13.1847 13.334 13.0007 13.334H10.334C10.1499 13.334 10.0007 13.1847 10.0007 13.0007V3.00065Z" fill="#B92F68"/>
<path fill-rule="evenodd" clip-rule="evenodd" d="M3.00065 7.33398C2.08018 7.33398 1.33398 8.08018 1.33398 9.00065V13.0007C1.33398 13.9211 2.08018 14.6673 3.00065 14.6673H5.66732C6.58779 14.6673 7.33398 13.9211 7.33398 13.0007V9.00065C7.33398 8.08018 6.58779 7.33398 5.66732 7.33398H3.00065ZM2.66732 9.00065C2.66732 8.81656 2.81656 8.66732 3.00065 8.66732H5.66732C5.85141 8.66732 6.00065 8.81656 6.00065 9.00065V13.0007C6.00065 13.1847 5.85141 13.334 5.66732 13.334H3.00065C2.81656 13.334 2.66732 13.1847 2.66732 13.0007V9.00065Z" fill="#B92F68"/>
</svg>
