<svg width="15" height="16" viewBox="0 0 15 16" fill="none" xmlns="http://www.w3.org/2000/svg">
<path fill-rule="evenodd" clip-rule="evenodd" d="M6.79102 0.916992C3.2702 0.916992 0.416016 3.77118 0.416016 7.29199C0.416016 10.8128 3.2702 13.667 6.79102 13.667C8.29623 13.667 9.67961 13.1453 10.7702 12.2729L13.3735 14.8762C13.6501 15.1528 14.0986 15.1528 14.3752 14.8762C14.6518 14.5996 14.6518 14.1511 14.3752 13.8745L11.7719 11.2712C12.6443 10.1806 13.166 8.79721 13.166 7.29199C13.166 3.77118 10.3118 0.916992 6.79102 0.916992ZM1.83268 7.29199C1.83268 4.55358 4.0526 2.33366 6.79102 2.33366C9.52943 2.33366 11.7493 4.55358 11.7493 7.29199C11.7493 10.0304 9.52943 12.2503 6.79102 12.2503C4.0526 12.2503 1.83268 10.0304 1.83268 7.29199Z" fill="#C61531"/>
</svg>
