<svg width="16" height="22" viewBox="0 0 16 22" fill="none" xmlns="http://www.w3.org/2000/svg">
<path d="M8 0V5.5C8 6.12515 8.25286 6.7247 8.70294 7.16675C9.15303 7.6088 9.76348 7.85714 10.4 7.85714H16V19.6429C16 20.268 15.7471 20.8676 15.2971 21.3096C14.847 21.7517 14.2365 22 13.6 22H2.4C1.76348 22 1.15303 21.7517 0.702944 21.3096C0.252856 20.8676 0 20.268 0 19.6429V2.35714C0 1.73199 0.252856 1.13244 0.702944 0.690391C1.15303 0.248341 1.76348 0 2.4 0H8ZM9.6 0.392857V5.5C9.6 5.70838 9.68429 5.90823 9.83431 6.05558C9.98434 6.20293 10.1878 6.28571 10.4 6.28571H15.6L9.6 0.392857Z" fill="#585858"/>
</svg>
