<svg width="29" height="29" viewBox="0 0 29 29" fill="none" xmlns="http://www.w3.org/2000/svg">
<path d="M23.7216 9.48961L16.6051 2.37305H7.11633C6.48718 2.37305 5.88381 2.62297 5.43894 3.06784C4.99407 3.51272 4.74414 4.11609 4.74414 4.74523V23.7227C4.74414 24.3519 4.99407 24.9552 5.43894 25.4001C5.88381 25.845 6.48718 26.0949 7.11633 26.0949H21.3494C21.9786 26.0949 22.582 25.845 23.0268 25.4001C23.4717 24.9552 23.7216 24.3519 23.7216 23.7227V9.48961ZM10.6746 22.5366H8.30242V11.8618H10.6746V22.5366ZM15.419 22.5366H13.0468V15.4201H15.419V22.5366ZM20.1634 22.5366H17.7912V18.9784H20.1634V22.5366ZM16.6051 10.6757H15.419V4.74523L21.3494 10.6757H16.6051Z" fill="#F8F8F8"/>
</svg>
