<svg width="32" height="32" viewBox="0 0 32 32" fill="none" xmlns="http://www.w3.org/2000/svg">
<path d="M19.8284 3.93865C19.5754 3.68565 19.2751 3.48495 18.9445 3.34803C18.614 3.2111 18.2597 3.14063 17.9019 3.14062C17.5441 3.14062 17.1898 3.2111 16.8593 3.34803C16.5287 3.48495 16.2284 3.68565 15.9754 3.93865L3.93865 15.9754C3.68565 16.2284 3.48495 16.5287 3.34803 16.8593C3.2111 17.1898 3.14062 17.5441 3.14062 17.9019C3.14062 18.2597 3.2111 18.614 3.34803 18.9445C3.48495 19.2751 3.68565 19.5754 3.93865 19.8284L5.14513 21.0349C5.77873 21.6685 6.68009 21.5595 7.24052 21.2528C7.6095 21.0515 8.03375 20.975 8.4498 21.0349C8.86585 21.0948 9.25132 21.2878 9.54854 21.585C9.84576 21.8822 10.0388 22.2677 10.0986 22.6838C10.1585 23.0998 10.0821 23.5241 9.88076 23.893C9.57408 24.4535 9.46667 25.3564 10.0987 25.99L11.3052 27.1949C11.5582 27.4479 11.8585 27.6486 12.189 27.7855C12.5196 27.9225 12.8739 27.9929 13.2317 27.9929C13.5894 27.9929 13.9437 27.9225 14.2743 27.7855C14.6048 27.6486 14.9052 27.4479 15.1581 27.1949L27.1949 15.1581C27.4479 14.9052 27.6486 14.6048 27.7855 14.2743C27.9225 13.9437 27.9929 13.5894 27.9929 13.2317C27.9929 12.8739 27.9225 12.5196 27.7855 12.189C27.6486 11.8585 27.4479 11.5582 27.1949 11.3052L25.9884 10.0987C25.3564 9.46667 24.455 9.57408 23.8946 9.88076C23.5256 10.0821 23.1014 10.1585 22.6853 10.0986C22.2693 10.0388 21.8838 9.84576 21.5866 9.54854C21.2894 9.25132 21.0964 8.86585 21.0365 8.4498C20.9766 8.03375 21.053 7.6095 21.2544 7.24052C21.5595 6.68009 21.6685 5.77717 21.0364 5.14513L19.8284 3.93865Z" fill="#F8F8F8"/>
</svg>
