<svg width="25" height="25" viewBox="0 0 25 25" fill="none" xmlns="http://www.w3.org/2000/svg">
<path d="M13.5423 16.6676H7.29233C7.01606 16.6676 6.75111 16.7773 6.55576 16.9726C6.36041 17.168 6.25066 17.433 6.25066 17.7092C6.25066 17.9855 6.36041 18.2504 6.55576 18.4458C6.75111 18.6411 7.01606 18.7509 7.29233 18.7509H13.5423C13.8186 18.7509 14.0835 18.6411 14.2789 18.4458C14.4742 18.2504 14.584 17.9855 14.584 17.7092C14.584 17.433 14.4742 17.168 14.2789 16.9726C14.0835 16.7773 13.8186 16.6676 13.5423 16.6676ZM9.37566 10.4176H11.459C11.7353 10.4176 12.0002 10.3078 12.1956 10.1125C12.3909 9.9171 12.5007 9.65215 12.5007 9.37589C12.5007 9.09962 12.3909 8.83467 12.1956 8.63932C12.0002 8.44397 11.7353 8.33422 11.459 8.33422H9.37566C9.09939 8.33422 8.83444 8.44397 8.63909 8.63932C8.44374 8.83467 8.33399 9.09962 8.33399 9.37589C8.33399 9.65215 8.44374 9.9171 8.63909 10.1125C8.83444 10.3078 9.09939 10.4176 9.37566 10.4176ZM21.8757 12.5009H18.7507V3.12589C18.7514 2.94233 18.7036 2.76185 18.6121 2.6027C18.5207 2.44356 18.3888 2.31141 18.2298 2.21964C18.0715 2.12821 17.8918 2.08008 17.709 2.08008C17.5261 2.08008 17.3465 2.12821 17.1882 2.21964L14.0632 4.0113L10.9382 2.21964C10.7798 2.12821 10.6002 2.08008 10.4173 2.08008C10.2345 2.08008 10.0548 2.12821 9.89649 2.21964L6.77149 4.0113L3.64649 2.21964C3.48814 2.12821 3.30851 2.08008 3.12566 2.08008C2.94281 2.08008 2.76318 2.12821 2.60483 2.21964C2.44586 2.31141 2.31397 2.44356 2.22251 2.6027C2.13105 2.76185 2.08326 2.94233 2.08399 3.12589V19.7926C2.08399 20.6214 2.41323 21.4162 2.99928 22.0023C3.58534 22.5883 4.38019 22.9176 5.20899 22.9176H19.7923C20.6211 22.9176 21.416 22.5883 22.002 22.0023C22.5881 21.4162 22.9173 20.6214 22.9173 19.7926V13.5426C22.9173 13.2663 22.8076 13.0013 22.6122 12.806C22.4169 12.6106 22.1519 12.5009 21.8757 12.5009ZM5.20899 20.8342C4.93273 20.8342 4.66777 20.7245 4.47242 20.5291C4.27707 20.3338 4.16733 20.0688 4.16733 19.7926V4.92797L6.25066 6.11547C6.41143 6.19944 6.59012 6.24329 6.77149 6.24329C6.95287 6.24329 7.13156 6.19944 7.29233 6.11547L10.4173 4.3238L13.5423 6.11547C13.7031 6.19944 13.8818 6.24329 14.0632 6.24329C14.2445 6.24329 14.4232 6.19944 14.584 6.11547L16.6673 4.92797V19.7926C16.6701 20.1479 16.7336 20.5002 16.8548 20.8342H5.20899ZM20.834 19.7926C20.834 20.0688 20.7242 20.3338 20.5289 20.5291C20.3335 20.7245 20.0686 20.8342 19.7923 20.8342C19.5161 20.8342 19.2511 20.7245 19.0558 20.5291C18.8604 20.3338 18.7507 20.0688 18.7507 19.7926V14.5842H20.834V19.7926ZM13.5423 12.5009H7.29233C7.01606 12.5009 6.75111 12.6106 6.55576 12.806C6.36041 13.0013 6.25066 13.2663 6.25066 13.5426C6.25066 13.8188 6.36041 14.0838 6.55576 14.2791C6.75111 14.4745 7.01606 14.5842 7.29233 14.5842H13.5423C13.8186 14.5842 14.0835 14.4745 14.2789 14.2791C14.4742 14.0838 14.584 13.8188 14.584 13.5426C14.584 13.2663 14.4742 13.0013 14.2789 12.806C14.0835 12.6106 13.8186 12.5009 13.5423 12.5009Z" fill="#585858"/>
</svg>
