<svg width="29" height="29" viewBox="0 0 29 29" fill="none" xmlns="http://www.w3.org/2000/svg">
<path d="M21.3494 5.93133L17.7912 2.37305H7.11633C6.48718 2.37305 5.88381 2.62297 5.43894 3.06784C4.99407 3.51272 4.74414 4.11609 4.74414 4.74523V23.7227C4.74414 24.3519 4.99407 24.9552 5.43894 25.4001C5.88381 25.845 6.48718 26.0949 7.11633 26.0949H21.3494C21.9786 26.0949 22.582 25.845 23.0268 25.4001C23.4717 24.9552 23.7216 24.3519 23.7216 23.7227M9.48851 21.3505H10.6746" stroke="#F8F8F8" stroke-width="2.37219" stroke-linecap="round" stroke-linejoin="round"/>
<path d="M21.8248 11.3873C22.2967 10.9155 22.9367 10.6504 23.604 10.6504C24.2713 10.6504 24.9112 10.9155 25.3831 11.3873C25.855 11.8592 26.12 12.4992 26.12 13.1665C26.12 13.8338 25.855 14.4738 25.3831 14.9456L20.1643 20.1644L15.4199 21.3505L16.606 16.6061L21.8248 11.3873Z" stroke="#F8F8F8" stroke-width="2.37219" stroke-linecap="round" stroke-linejoin="round"/>
</svg>
