<svg width="25" height="25" viewBox="0 0 25 25" fill="none" xmlns="http://www.w3.org/2000/svg">
<path d="M23.1287 7.61682H21.4052V2.4462C21.4047 1.98923 21.223 1.5511 20.8998 1.22797C20.5767 0.904846 20.1386 0.723113 19.6816 0.722656H5.89328C5.43631 0.723113 4.99819 0.904846 4.67506 1.22797C4.35193 1.5511 4.1702 1.98923 4.16974 2.4462V7.61682H2.4462C1.98923 7.61728 1.5511 7.79901 1.22797 8.12214C0.904846 8.44527 0.723113 8.88339 0.722656 9.34037V24.8522H24.8522V9.34037C24.8518 8.88339 24.6701 8.44527 24.3469 8.12214C24.0238 7.79901 23.5857 7.61728 23.1287 7.61682ZM11.0639 23.1287V17.9581H14.511V23.1287H11.0639ZM16.2345 23.1287V17.0963C16.2345 16.8677 16.1437 16.6486 15.9821 16.4869C15.8205 16.3253 15.6013 16.2345 15.3728 16.2345H10.2021C9.97358 16.2345 9.75439 16.3253 9.59277 16.4869C9.43116 16.6486 9.34037 16.8677 9.34037 17.0963V23.1287H2.4462V9.34037H5.89328V2.4462H19.6816V9.34037H23.1287V23.1287H16.2345Z" fill="#F8F8F8"/>
</svg>
