<svg width="24" height="24" viewBox="0 0 24 24" fill="none" xmlns="http://www.w3.org/2000/svg">
<rect x="0.5" y="0.5" width="23" height="23" rx="5.5" fill="white" fill-opacity="0.6"/>
<rect x="0.5" y="0.5" width="23" height="23" rx="5.5" stroke="#EEEEEE"/>
<path fill-rule="evenodd" clip-rule="evenodd" d="M14.334 5.3335C13.4135 5.3335 12.6673 6.07969 12.6673 7.00016V17.0002C12.6673 17.9206 13.4135 18.6668 14.334 18.6668H17.0007C17.9211 18.6668 18.6673 17.9206 18.6673 17.0002V7.00016C18.6673 6.07969 17.9211 5.3335 17.0007 5.3335H14.334ZM14.0007 7.00016C14.0007 6.81607 14.1499 6.66683 14.334 6.66683H17.0007C17.1847 6.66683 17.334 6.81607 17.334 7.00016V17.0002C17.334 17.1843 17.1847 17.3335 17.0007 17.3335H14.334C14.1499 17.3335 14.0007 17.1843 14.0007 17.0002V7.00016Z" fill="#295EEA"/>
<path fill-rule="evenodd" clip-rule="evenodd" d="M7.00065 11.3335C6.08018 11.3335 5.33398 12.0797 5.33398 13.0002V17.0002C5.33398 17.9206 6.08018 18.6668 7.00065 18.6668H9.66732C10.5878 18.6668 11.334 17.9206 11.334 17.0002V13.0002C11.334 12.0797 10.5878 11.3335 9.66732 11.3335H7.00065ZM6.66732 13.0002C6.66732 12.8161 6.81656 12.6668 7.00065 12.6668H9.66732C9.85141 12.6668 10.0007 12.8161 10.0007 13.0002V17.0002C10.0007 17.1843 9.85141 17.3335 9.66732 17.3335H7.00065C6.81656 17.3335 6.66732 17.1843 6.66732 17.0002V13.0002Z" fill="#295EEA"/>
</svg>
