<svg width="12" height="12" viewBox="0 0 12 12" fill="none" xmlns="http://www.w3.org/2000/svg">
<path d="M3.1125 5.50005H8.886C9.317 5.50005 9.546 4.99005 9.2595 4.66755L6.373 1.42005C6.32617 1.3672 6.26867 1.32489 6.20429 1.29591C6.1399 1.26694 6.0701 1.25195 5.9995 1.25195C5.92889 1.25195 5.85909 1.26694 5.7947 1.29591C5.73032 1.32489 5.67282 1.3672 5.626 1.42005L2.7385 4.66755C2.452 4.99005 2.681 5.50005 3.1125 5.50005ZM5.6255 10.5795C5.67232 10.6324 5.72982 10.6747 5.7942 10.7037C5.85859 10.7327 5.92839 10.7476 5.999 10.7476C6.0696 10.7476 6.1394 10.7327 6.20379 10.7037C6.26817 10.6747 6.32567 10.6324 6.3725 10.5795L9.259 7.33205C9.546 7.01005 9.317 6.50005 8.8855 6.50005H3.1125C2.6815 6.50005 2.4525 7.01005 2.739 7.33255L5.6255 10.5795Z" fill="#9A9A9A"/>
</svg>
