<svg width="34" height="7" viewBox="0 0 34 7" fill="none" xmlns="http://www.w3.org/2000/svg">
<path d="M16.8277 7.62939e-05C14.969 7.62939e-05 13.4621 1.3972 13.4621 3.12064C13.4621 4.84409 14.969 6.24121 16.8277 6.24121C18.6865 6.24121 20.1934 4.84409 20.1934 3.12064C20.1934 1.3972 18.6865 7.62939e-05 16.8277 7.62939e-05Z" fill="#353535"/>
<path d="M30.2906 7.62939e-05C28.4319 7.62939e-05 26.925 1.3972 26.925 3.12064C26.925 4.84409 28.4319 6.24121 30.2906 6.24121C32.1494 6.24121 33.6562 4.84409 33.6562 3.12064C33.6562 1.3972 32.1494 7.62939e-05 30.2906 7.62939e-05Z" fill="#353535"/>
<path d="M3.36486 7.62939e-05C1.50608 7.62939e-05 -0.000751495 1.3972 -0.000751495 3.12064C-0.000751495 4.84409 1.50608 6.24121 3.36486 6.24121C5.22363 6.24121 6.73047 4.84409 6.73047 3.12064C6.73047 1.3972 5.22363 7.62939e-05 3.36486 7.62939e-05Z" fill="#353535"/>
</svg>
