<svg width="10" height="14" viewBox="0 0 10 14" fill="none" xmlns="http://www.w3.org/2000/svg">
<path d="M3.00593 0.166992C2.72882 0.166992 2.48061 0.338412 2.38247 0.59756L2.22941 1.00175C1.90129 0.96896 1.59897 0.936237 1.35424 0.908758C1.17131 0.888217 1.02092 0.87065 0.91646 0.858241L0.795962 0.843779L0.755037 0.838776C0.389643 0.793534 0.0562308 1.053 0.0109822 1.41839C-0.0342669 1.78379 0.225266 2.11669 0.590665 2.16194L0.635192 2.16738L0.759177 2.18227C0.866075 2.19496 1.01932 2.21286 1.20547 2.23377C1.57745 2.27553 2.08231 2.32945 2.612 2.37779C3.32653 2.443 4.10974 2.50033 4.6726 2.50033C5.23545 2.50033 6.01867 2.443 6.73319 2.37779C7.26288 2.32945 7.76775 2.27553 8.13972 2.23377C8.32587 2.21286 8.47912 2.19496 8.58601 2.18227L8.71 2.16738L8.75444 2.16195C9.11984 2.1167 9.37946 1.78379 9.33421 1.41839C9.28896 1.053 8.95607 0.793469 8.59068 0.838711L8.54923 0.843779L8.42873 0.858241C8.32427 0.87065 8.17388 0.888217 7.99095 0.908758C7.74622 0.936237 7.4439 0.96896 7.11578 1.00175L6.96272 0.59756C6.86458 0.338412 6.61637 0.166992 6.33926 0.166992H3.00593Z" fill="#E30044"/>
<path d="M4.00593 6.83366C4.00593 6.46547 3.70745 6.16699 3.33926 6.16699C2.97107 6.16699 2.6726 6.46547 2.6726 6.83366V10.167C2.6726 10.5352 2.97107 10.8337 3.33926 10.8337C3.70745 10.8337 4.00593 10.5352 4.00593 10.167V6.83366Z" fill="#E30044"/>
<path d="M6.00593 6.16699C6.37412 6.16699 6.6726 6.46547 6.6726 6.83366V10.167C6.6726 10.5352 6.37412 10.8337 6.00593 10.8337C5.63774 10.8337 5.33926 10.5352 5.33926 10.167V6.83366C5.33926 6.46547 5.63774 6.16699 6.00593 6.16699Z" fill="#E30044"/>
<path fill-rule="evenodd" clip-rule="evenodd" d="M9.27903 4.36736C9.33945 3.52152 8.61021 2.84341 7.78146 2.93919C6.93344 3.03719 5.62482 3.16699 4.6726 3.16699C3.72037 3.16699 2.41175 3.03719 1.56373 2.93919C0.734981 2.84341 0.00574383 3.52152 0.0661614 4.36736L0.637317 12.3635C0.680613 12.9697 1.1321 13.4822 1.75169 13.5754C2.41609 13.6753 3.63522 13.8349 4.67337 13.8337C5.69875 13.8325 6.92284 13.6736 7.59017 13.5746C8.21082 13.4825 8.66458 12.9697 8.708 12.3617L9.27903 4.36736ZM7.93453 4.26371C7.93684 4.26344 7.93861 4.2636 7.93861 4.2636L7.94038 4.264C7.94186 4.26451 7.94418 4.26573 7.94648 4.26791C7.948 4.26935 7.94913 4.27111 7.94913 4.27111L7.94908 4.27237L7.37868 12.258C6.71822 12.3556 5.58628 12.4993 4.67182 12.5003C3.74745 12.5014 2.62251 12.3576 1.96661 12.2594L1.39611 4.27237L1.39606 4.27111C1.39606 4.27111 1.39719 4.26935 1.39871 4.26791C1.40101 4.26573 1.40333 4.26451 1.40482 4.264L1.40658 4.2636C1.40658 4.2636 1.40835 4.26344 1.41066 4.26371C2.26019 4.36189 3.63623 4.50033 4.6726 4.50033C5.70896 4.50033 7.08501 4.36189 7.93453 4.26371Z" fill="#E30044"/>
</svg>
