<svg width="24" height="24" viewBox="0 0 24 24" fill="none" xmlns="http://www.w3.org/2000/svg">
<g clip-path="url(#clip0_6930_41646)">
<path d="M24.75 11.5006H9.925L14.4625 6.05059C14.6747 5.79532 14.7768 5.46622 14.7463 5.13568C14.7158 4.80515 14.5553 4.50026 14.3 4.28809C14.0447 4.07592 13.7156 3.97384 13.3851 4.00431C13.0546 4.03479 12.7497 4.19532 12.5375 4.45059L6.2875 11.9506C6.24545 12.0102 6.20785 12.0729 6.175 12.1381C6.175 12.2006 6.175 12.2381 6.0875 12.3006C6.03084 12.4439 6.00118 12.5965 6 12.7506C6.00118 12.9047 6.03084 13.0573 6.0875 13.2006C6.0875 13.2631 6.0875 13.3006 6.175 13.3631C6.20785 13.4283 6.24545 13.4909 6.2875 13.5506L12.5375 21.0506C12.655 21.1917 12.8022 21.3052 12.9686 21.3829C13.1349 21.4607 13.3164 21.5009 13.5 21.5006C13.7921 21.5012 14.0751 21.3994 14.3 21.2131C14.4266 21.1082 14.5312 20.9793 14.6079 20.8338C14.6846 20.6884 14.7318 20.5293 14.7469 20.3656C14.762 20.2018 14.7447 20.0367 14.6959 19.8797C14.6471 19.7227 14.5678 19.5769 14.4625 19.4506L9.925 14.0006H24.75C25.0815 14.0006 25.3995 13.8689 25.6339 13.6345C25.8683 13.4001 26 13.0821 26 12.7506C26 12.4191 25.8683 12.1011 25.6339 11.8667C25.3995 11.6323 25.0815 11.5006 24.75 11.5006Z" fill="#C61531"/>
</g>
<defs>
<clipPath id="clip0_6930_41646">
<rect width="24" height="24" fill="white"/>
</clipPath>
</defs>
</svg>
