<svg width="16" height="20" viewBox="0 0 16 20" fill="none" xmlns="http://www.w3.org/2000/svg">
<path fill-rule="evenodd" clip-rule="evenodd" d="M3.83333 2.50016C2.91286 2.50016 2.16667 3.24635 2.16667 4.16683V15.8335C2.16667 16.754 2.91286 17.5002 3.83333 17.5002H5.5C5.96024 17.5002 6.33333 17.8733 6.33333 18.3335C6.33333 18.7937 5.96024 19.1668 5.5 19.1668H3.83333C1.99238 19.1668 0.5 17.6744 0.5 15.8335V4.16683C0.5 2.32588 1.99238 0.833496 3.83333 0.833496H9.32906C10.3183 0.833496 11.2565 1.27291 11.8898 2.03288L14.7274 5.43801C15.2266 6.03706 15.5 6.79217 15.5 7.57195V15.8335C15.5 17.6744 14.0076 19.1668 12.1667 19.1668H10.5C10.0398 19.1668 9.66667 18.7937 9.66667 18.3335C9.66667 17.8733 10.0398 17.5002 10.5 17.5002H12.1667C13.0871 17.5002 13.8333 16.754 13.8333 15.8335V8.3335H12.1667C10.3257 8.3335 8.83333 6.84111 8.83333 5.00016V2.50016H3.83333ZM13.447 6.50498C13.4901 6.55672 13.5299 6.61078 13.5661 6.66683H12.1667C11.2462 6.66683 10.5 5.92064 10.5 5.00016V2.98078C10.5382 3.01849 10.5747 3.05821 10.6094 3.09986L13.447 6.50498Z" fill="#C61531"/>
<path d="M8.55364 11.8773C8.2379 11.5967 7.7621 11.5967 7.44636 11.8773L6.19636 12.9884C5.85238 13.2942 5.82139 13.8209 6.12716 14.1649C6.39465 14.4658 6.83125 14.5272 7.16667 14.3332V18.3335C7.16667 18.7937 7.53976 19.1668 8 19.1668C8.46024 19.1668 8.83333 18.7937 8.83333 18.3335V14.3332C9.16875 14.5272 9.60535 14.4658 9.87284 14.1649C10.1786 13.8209 10.1476 13.2942 9.80364 12.9884L8.55364 11.8773Z" fill="#C61531"/>
</svg>
