<svg width="20" height="20" viewBox="0 0 20 20" fill="none" xmlns="http://www.w3.org/2000/svg">
<path fill-rule="evenodd" clip-rule="evenodd" d="M5.83333 2.49992C4.91286 2.49992 4.16667 3.24611 4.16667 4.16658V15.8333C4.16667 16.7537 4.91286 17.4999 5.83333 17.4999H7.5C7.96024 17.4999 8.33333 17.873 8.33333 18.3333C8.33333 18.7935 7.96024 19.1666 7.5 19.1666H5.83333C3.99238 19.1666 2.5 17.6742 2.5 15.8333V4.16658C2.5 2.32564 3.99238 0.833252 5.83333 0.833252H11.3291C12.3183 0.833252 13.2565 1.27266 13.8898 2.03264L16.7274 5.43776C17.2266 6.03681 17.5 6.79192 17.5 7.57171V15.8333C17.5 17.6742 16.0076 19.1666 14.1667 19.1666H12.5C12.0398 19.1666 11.6667 18.7935 11.6667 18.3333C11.6667 17.873 12.0398 17.4999 12.5 17.4999H14.1667C15.0871 17.4999 15.8333 16.7537 15.8333 15.8333V8.33325H14.1667C12.3257 8.33325 10.8333 6.84087 10.8333 4.99992V2.49992H5.83333ZM15.447 6.50474C15.4901 6.55647 15.5299 6.61053 15.5661 6.66658H14.1667C13.2462 6.66658 12.5 5.92039 12.5 4.99992V2.98054C12.5382 3.01825 12.5747 3.05797 12.6094 3.09961L15.447 6.50474Z" fill="#C61531"/>
<path d="M10.5536 11.8771C10.2379 11.5964 9.7621 11.5964 9.44636 11.8771L8.19636 12.9882C7.85238 13.294 7.82139 13.8207 8.12716 14.1647C8.39465 14.4656 8.83125 14.527 9.16667 14.3329V18.3333C9.16667 18.7935 9.53976 19.1666 10 19.1666C10.4602 19.1666 10.8333 18.7935 10.8333 18.3333V14.3329C11.1687 14.527 11.6053 14.4656 11.8728 14.1647C12.1786 13.8207 12.1476 13.294 11.8036 12.9882L10.5536 11.8771Z" fill="#C61531"/>
</svg>
