<svg width="17" height="18" viewBox="0 0 17 18" fill="none" xmlns="http://www.w3.org/2000/svg">
<path fill-rule="evenodd" clip-rule="evenodd" d="M2.90017 0.666748C1.39014 0.666748 0.166016 1.89087 0.166016 3.4009C0.166016 3.96187 0.338568 4.50927 0.660264 4.96884L5.69807 12.1657C5.89417 12.4458 5.99935 12.7795 5.99935 13.1215V14.9641C5.99935 16.6721 7.79682 17.783 9.32452 17.0192C10.351 16.506 10.9993 15.4569 10.9993 14.3093V13.1215C10.9993 12.7795 11.1045 12.4458 11.3006 12.1657L16.3384 4.96883C16.6601 4.50927 16.8327 3.96187 16.8327 3.4009C16.8327 1.89087 15.6086 0.666748 14.0985 0.666748H2.90017ZM9.33268 14.3093C9.33268 14.8256 9.04097 15.2976 8.57917 15.5285C8.15963 15.7382 7.66602 15.4332 7.66602 14.9641V13.1215C7.66602 12.4376 7.45565 11.7702 7.06346 11.2099L2.02565 4.01306C1.90005 3.83364 1.83268 3.61992 1.83268 3.4009C1.83268 2.81134 2.31061 2.33341 2.90017 2.33341H14.0985C14.6881 2.33341 15.166 2.81134 15.166 3.4009C15.166 3.61992 15.0986 3.83364 14.973 4.01306L9.93524 11.2099C9.54305 11.7702 9.33268 12.4376 9.33268 13.1215V14.3093Z" fill="#C61531"/>
</svg>
