<svg width="17" height="18" viewBox="0 0 17 18" fill="none" xmlns="http://www.w3.org/2000/svg">
<path fill-rule="evenodd" clip-rule="evenodd" d="M2.90114 0.666504C1.39111 0.666504 0.166992 1.89063 0.166992 3.40066C0.166992 3.96163 0.339544 4.50903 0.66124 4.96859L5.69905 12.1655C5.89514 12.4456 6.00033 12.7793 6.00033 13.1212V14.9639C6.00033 16.6719 7.7978 17.7828 9.3255 17.0189C10.3519 16.5057 11.0003 15.4566 11.0003 14.309V13.1212C11.0003 12.7793 11.1055 12.4456 11.3016 12.1655L16.3394 4.96859C16.6611 4.50902 16.8337 3.96163 16.8337 3.40066C16.8337 1.89063 15.6095 0.666504 14.0995 0.666504H2.90114ZM9.33366 14.309C9.33366 14.8253 9.04195 15.2973 8.58014 15.5282C8.16061 15.738 7.66699 15.4329 7.66699 14.9639V13.1212C7.66699 12.4373 7.45663 11.77 7.06443 11.2097L2.02663 4.01282C1.90103 3.83339 1.83366 3.61967 1.83366 3.40066C1.83366 2.8111 2.31159 2.33317 2.90114 2.33317H14.0995C14.6891 2.33317 15.167 2.8111 15.167 3.40066C15.167 3.61968 15.0996 3.83339 14.974 4.01282L9.93622 11.2097C9.54402 11.77 9.33366 12.4373 9.33366 13.1212V14.309Z" fill="#C61531"/>
</svg>
