<svg width="30" height="30" viewBox="0 0 30 30" fill="none" xmlns="http://www.w3.org/2000/svg">
<path d="M15.1659 5.49967C15.1659 4.85534 14.6436 4.33301 13.9993 4.33301C13.3549 4.33301 12.8326 4.85534 12.8326 5.49967V7.24967C12.8326 7.28203 12.8339 7.31408 12.8365 7.34577C9.5239 7.89937 6.99926 10.7785 6.99926 14.2484V18.9163C6.99926 19.4999 6.52079 20.5119 5.99719 21.4446C5.26042 22.7571 5.39535 24.3395 6.80198 24.8751C8.2167 25.4137 10.4797 25.9163 13.9993 25.9163C17.5188 25.9163 19.7818 25.4137 21.1965 24.8751C22.6032 24.3395 22.7381 22.7571 22.0013 21.4446C21.4777 20.5119 20.9993 19.4999 20.9993 18.9163V14.249C20.9993 10.7791 18.4746 7.89948 15.162 7.34578C15.1646 7.31409 15.1659 7.28204 15.1659 7.24967V5.49967Z" fill="#667185"/>
<path d="M10.406 26.8784C10.4496 26.9164 10.5022 26.9607 10.5634 27.0097C10.7388 27.15 10.9893 27.3318 11.3059 27.5127C11.9342 27.8717 12.8632 28.2497 13.9993 28.2497C15.1353 28.2497 16.0644 27.8717 16.6927 27.5127C17.0093 27.3318 17.2598 27.15 17.4351 27.0097C17.4964 26.9607 17.549 26.9164 17.5925 26.8784C16.5724 27.0054 15.383 27.0831 13.9993 27.0831C12.6156 27.0831 11.4261 27.0054 10.406 26.8784Z" fill="#667185"/>
<rect x="15" width="15" height="16" rx="7.5" fill="#C10000"/>
<path d="M19.5149 10.6506V9.60298L22.6009 4.72727H23.4744V6.21875H22.9418L20.8643 9.51065V9.56747H25.1719V10.6506H19.5149ZM22.9844 12V10.331L22.9986 9.86222V4.72727H24.2415V12H22.9844Z" fill="white"/>
</svg>
