<svg width="17" height="16" viewBox="0 0 17 16" fill="none" xmlns="http://www.w3.org/2000/svg">
<path fill-rule="evenodd" clip-rule="evenodd" d="M14.4032 1.9399C13.5055 1.04217 12.05 1.04217 11.1523 1.9399L5.46863 7.62354C5.06064 8.03153 4.79598 8.56085 4.71438 9.13203L4.54968 10.2849C4.42397 11.1649 5.17822 11.9191 6.05818 11.7934L7.21109 11.6287C7.78228 11.5471 8.31159 11.2825 8.71958 10.8745L14.4032 5.19085C15.301 4.29312 15.301 2.83762 14.4032 1.9399ZM12.2347 2.76691C12.6105 2.51073 13.127 2.54933 13.4604 2.8827C13.7938 3.21608 13.8324 3.7326 13.5762 4.10839L12.2347 2.76691ZM11.28 3.69779L12.6453 5.06313L7.77677 9.93168C7.57278 10.1357 7.30812 10.268 7.02253 10.3088L5.86961 10.4735L6.03432 9.3206C6.07512 9.035 6.20744 8.77034 6.41144 8.56635L11.28 3.69779Z" fill="#121638"/>
<path d="M4.67253 1.33324C3.19977 1.33324 2.00586 2.52715 2.00586 3.9999V11.9999C2.00586 13.4727 3.19977 14.6666 4.67253 14.6666H12.6725C14.1453 14.6666 15.3392 13.4727 15.3392 11.9999V7.9999C15.3392 7.63172 15.0407 7.33324 14.6725 7.33324C14.3043 7.33324 14.0059 7.63172 14.0059 7.9999V11.9999C14.0059 12.7363 13.4089 13.3332 12.6725 13.3332H4.67253C3.93615 13.3332 3.33919 12.7363 3.33919 11.9999V3.9999C3.33919 3.26353 3.93615 2.66657 4.67253 2.66657H6.462C6.83019 2.66657 7.12867 2.36809 7.12867 1.9999C7.12867 1.63171 6.83019 1.33324 6.462 1.33324H4.67253Z" fill="#121638"/>
</svg>
