<svg width="21" height="20" viewBox="0 0 21 20" fill="none" xmlns="http://www.w3.org/2000/svg">
<path d="M5.49935 6.66675C5.95959 6.66675 6.33268 7.03984 6.33268 7.50008C6.33268 7.96032 5.95959 8.33342 5.49935 8.33342C5.03911 8.33342 4.66602 7.96032 4.66602 7.50008C4.66602 7.03984 5.03911 6.66675 5.49935 6.66675Z" fill="#AB1111"/>
<path d="M8.41602 12.9167C8.41602 12.4565 8.78911 12.0834 9.24935 12.0834H11.7493C12.2096 12.0834 12.5827 12.4565 12.5827 12.9167C12.5827 13.377 12.2096 13.7501 11.7493 13.7501H9.24935C8.78911 13.7501 8.41602 13.377 8.41602 12.9167Z" fill="#AB1111"/>
<path d="M9.24935 14.5834C8.78911 14.5834 8.41602 14.9565 8.41602 15.4167C8.41602 15.877 8.78911 16.2501 9.24935 16.2501H10.916C11.3763 16.2501 11.7493 15.877 11.7493 15.4167C11.7493 14.9565 11.3763 14.5834 10.916 14.5834H9.24935Z" fill="#AB1111"/>
<path fill-rule="evenodd" clip-rule="evenodd" d="M6.33268 3.33341C6.33268 2.41294 7.07887 1.66675 7.99935 1.66675H12.9993C13.9198 1.66675 14.666 2.41294 14.666 3.33341V4.16675H15.4993C17.3403 4.16675 18.8327 5.65913 18.8327 7.50008V11.6667C18.8327 13.5077 17.3403 15.0001 15.4993 15.0001H14.666V16.6667C14.666 17.5872 13.9198 18.3334 12.9993 18.3334H7.99935C7.07887 18.3334 6.33268 17.5872 6.33268 16.6667V15.0001H5.49935C3.6584 15.0001 2.16602 13.5077 2.16602 11.6667V7.50008C2.16602 5.65913 3.6584 4.16675 5.49935 4.16675H6.33268V3.33341ZM12.9993 3.33341V4.16675H7.99935V3.33341H12.9993ZM3.83268 7.50008C3.83268 6.57961 4.57887 5.83342 5.49935 5.83342H15.4993C16.4198 5.83342 17.166 6.57961 17.166 7.50008V11.6667C17.166 12.5872 16.4198 13.3334 15.4993 13.3334H14.666V11.6667C14.666 10.7463 13.9198 10.0001 12.9993 10.0001H7.99935C7.07887 10.0001 6.33268 10.7463 6.33268 11.6667V13.3334H5.49935C4.57887 13.3334 3.83268 12.5872 3.83268 11.6667V7.50008ZM7.99935 11.6667H12.9993V16.6667H7.99935V11.6667Z" fill="#AB1111"/>
</svg>
