<svg width="18" height="18" viewBox="0 0 18 18" fill="none" xmlns="http://www.w3.org/2000/svg">
<path d="M4 6C4.55228 6 5 6.44772 5 7C5 7.55228 4.55228 8 4 8C3.44772 8 3 7.55228 3 7C3 6.44772 3.44772 6 4 6Z" fill="#AB1111"/>
<path d="M7.5 13.5C7.5 12.9477 7.94772 12.5 8.5 12.5H11.5C12.0523 12.5 12.5 12.9477 12.5 13.5C12.5 14.0523 12.0523 14.5 11.5 14.5H8.5C7.94772 14.5 7.5 14.0523 7.5 13.5Z" fill="#AB1111"/>
<path d="M8.5 15.5C7.94772 15.5 7.5 15.9477 7.5 16.5C7.5 17.0523 7.94772 17.5 8.5 17.5H10.5C11.0523 17.5 11.5 17.0523 11.5 16.5C11.5 15.9477 11.0523 15.5 10.5 15.5H8.5Z" fill="#AB1111"/>
<path fill-rule="evenodd" clip-rule="evenodd" d="M5 2C5 0.895431 5.89543 0 7 0H13C14.1046 0 15 0.89543 15 2V3H16C18.2091 3 20 4.79086 20 7V12C20 14.2091 18.2091 16 16 16H15V18C15 19.1046 14.1046 20 13 20H7C5.89543 20 5 19.1046 5 18V16H4C1.79086 16 0 14.2091 0 12V7C0 4.79086 1.79086 3 4 3H5V2ZM13 2V3H7V2H13ZM2 7C2 5.89543 2.89543 5 4 5H16C17.1046 5 18 5.89543 18 7V12C18 13.1046 17.1046 14 16 14H15V12C15 10.8954 14.1046 10 13 10H7C5.89543 10 5 10.8954 5 12V14H4C2.89543 14 2 13.1046 2 12V7ZM7 12H13V18H7V12Z" fill="#AB1111"/>
</svg>
