<svg width="11" height="11" viewBox="0 0 11 11" fill="none" xmlns="http://www.w3.org/2000/svg">
<path d="M9.40133 2.56025L9.15063 2.81096C9.02299 2.93859 8.84988 3.0103 8.66937 3.0103C8.48887 3.0103 8.31576 2.93859 8.18812 2.81096C8.06049 2.68332 7.98878 2.51021 7.98878 2.32971C7.98878 2.1492 8.06049 1.97609 8.18812 1.84846L8.43883 1.59775L6.84108 0L4.82442 2.01667L4.73275 2.29373L4.45569 2.3854L0 6.84108L1.59867 8.43975L1.84938 8.18904C1.97701 8.06141 2.15012 7.9897 2.33063 7.9897C2.51113 7.9897 2.68424 8.06141 2.81188 8.18904C2.93951 8.31668 3.01122 8.48979 3.01122 8.67029C3.01122 8.8508 2.93951 9.02391 2.81188 9.15154L2.56117 9.40225L4.15892 11L8.61392 6.545L8.70558 6.26794L8.98265 6.17627L10.9993 4.1596L9.40133 2.56025ZM4.62183 2.68469L5.12302 2.1835L5.87927 2.93975L5.37785 3.44094L4.62183 2.68469ZM5.60725 3.6701L6.10867 3.16869L6.85392 3.91394L6.3525 4.41535L5.60725 3.6701ZM6.58258 4.64544L7.084 4.14402L7.82925 4.88927L7.32875 5.39183L6.58258 4.64544ZM8.3144 6.37702L7.55815 5.62077L8.05933 5.11935L8.81558 5.8756L8.3144 6.37702Z" fill="#7A7C87"/>
</svg>
