<svg width="15" height="16" viewBox="0 0 15 16" fill="none" xmlns="http://www.w3.org/2000/svg">
<path fill-rule="evenodd" clip-rule="evenodd" d="M6.79102 0.916748C3.2702 0.916748 0.416016 3.77093 0.416016 7.29175C0.416016 10.8126 3.2702 13.6667 6.79102 13.6667C8.29623 13.6667 9.67961 13.1451 10.7702 12.2727L13.3735 14.876C13.6501 15.1526 14.0986 15.1526 14.3752 14.876C14.6518 14.5993 14.6518 14.1508 14.3752 13.8742L11.7719 11.2709C12.6443 10.1803 13.166 8.79697 13.166 7.29175C13.166 3.77093 10.3118 0.916748 6.79102 0.916748ZM1.83268 7.29175C1.83268 4.55334 4.0526 2.33341 6.79102 2.33341C9.52943 2.33341 11.7493 4.55334 11.7493 7.29175C11.7493 10.0302 9.52943 12.2501 6.79102 12.2501C4.0526 12.2501 1.83268 10.0302 1.83268 7.29175Z" fill="#C61531"/>
</svg>
