<svg width="14" height="13" viewBox="0 0 14 13" fill="none" xmlns="http://www.w3.org/2000/svg">
<path d="M12.3094 10.2141C11.9707 9.90813 11.6411 9.59339 11.3209 9.27022C11.0519 9.01243 10.8899 8.82489 10.8899 8.82489L8.86524 7.91307C9.67583 7.04602 10.1232 5.92985 10.1234 4.7739C10.1234 2.14212 7.8529 0 5.06172 0C2.27054 0 0 2.14212 0 4.7739C0 7.40568 2.27054 9.54779 5.06172 9.54779C6.33655 9.54779 7.49857 9.09768 8.39016 8.36182L9.35695 10.2714C9.35695 10.2714 9.5558 10.4241 9.82913 10.6778C10.109 10.9254 10.477 11.2603 10.8299 11.6101L11.8119 12.5594L12.2486 13L13.7823 11.5535L13.3152 11.1416C13.0412 10.8879 12.6753 10.551 12.3094 10.2141ZM5.06172 8.18382C3.06812 8.18382 1.44621 6.65413 1.44621 4.7739C1.44621 2.89366 3.06812 1.36397 5.06172 1.36397C7.05531 1.36397 8.67723 2.89366 8.67723 4.7739C8.67723 6.65413 7.05531 8.18382 5.06172 8.18382Z" fill="#B9B9B9"/>
</svg>
