<svg width="12" height="14" viewBox="0 0 12 14" fill="none" xmlns="http://www.w3.org/2000/svg">
<path fill-rule="evenodd" clip-rule="evenodd" d="M11.59 7.24418C11.7462 7.40045 11.834 7.61238 11.834 7.83335C11.834 8.05432 11.7462 8.26624 11.59 8.42251L6.59 13.4225C6.43372 13.5787 6.2218 13.6665 6.00083 13.6665C5.77986 13.6665 5.56794 13.5787 5.41166 13.4225L0.411662 8.42251C0.259864 8.26535 0.175868 8.05484 0.177767 7.83635C0.179666 7.61785 0.267307 7.40884 0.421814 7.25433C0.576321 7.09983 0.785332 7.01219 1.00383 7.01029C1.22233 7.00839 1.43283 7.09238 1.59 7.24418L5.1675 10.8217V1.16668C5.1675 0.945667 5.25529 0.733706 5.41157 0.577425C5.56785 0.421144 5.77982 0.333348 6.00083 0.333348C6.22184 0.333348 6.4338 0.421144 6.59008 0.577425C6.74637 0.733706 6.83416 0.945667 6.83416 1.16668V10.8217L10.4117 7.24418C10.5679 7.08796 10.7799 7.00019 11.0008 7.00019C11.2218 7.00019 11.4337 7.08796 11.59 7.24418Z" fill="#C61531"/>
</svg>
