<svg width="100" height="81" viewBox="0 0 100 81" fill="none" xmlns="http://www.w3.org/2000/svg">
<path d="M50.0077 19.2337C50.0077 24.3348 47.9813 29.227 44.3743 32.834C40.7672 36.4411 35.8751 38.4675 30.774 38.4675C25.6729 38.4675 20.7807 36.4411 17.1737 32.834C13.5666 29.227 11.5402 24.3348 11.5402 19.2337C11.5402 14.1326 13.5666 9.24045 17.1737 5.63343C20.7807 2.0264 25.6729 0 30.774 0C35.8751 0 40.7672 2.0264 44.3743 5.63343C47.9813 9.24045 50.0077 14.1326 50.0077 19.2337ZM76.9349 38.4675C81.0158 38.4675 84.9295 36.8463 87.8152 33.9607C90.7008 31.0751 92.3219 27.1614 92.3219 23.0805C92.3219 18.9996 90.7008 15.0859 87.8152 12.2002C84.9295 9.31461 81.0158 7.69349 76.9349 7.69349C72.854 7.69349 68.9403 9.31461 66.0547 12.2002C63.1691 15.0859 61.5479 18.9996 61.5479 23.0805C61.5479 27.1614 63.1691 31.0751 66.0547 33.9607C68.9403 36.8463 72.854 38.4675 76.9349 38.4675ZM69.2414 58.4244V57.7012C69.247 53.5387 67.8966 49.4876 65.3947 46.1609H90.5755C95.7763 46.1609 100 50.377 100 55.5855C100 55.5855 100 73.0882 76.9195 73.0882C72.3188 73.0882 68.6336 72.3958 65.687 71.2802C67.5248 67.9127 68.6926 64.221 69.126 60.4093C69.1722 59.9323 69.203 59.5245 69.2183 59.186L69.2414 58.4167V58.4244ZM61.5479 57.7012C61.5479 54.6405 60.3321 51.7052 58.1679 49.541C56.0037 47.3768 53.0684 46.1609 50.0077 46.1609H11.5402C8.47958 46.1609 5.54427 47.3768 3.38006 49.541C1.21584 51.7052 0 54.6405 0 57.7012V58.2782C0 58.2782 0 80.7817 30.774 80.7817C60.1016 80.7817 61.4787 60.3477 61.5479 58.4244V57.7012Z" fill="#C61531"/>
</svg>
